<svg width="474" height="42" viewBox="0 0 474 42" fill="none" xmlns="http://www.w3.org/2000/svg">
<path fill-rule="evenodd" clip-rule="evenodd" d="M428.085 23.4272H427.56L420.726 3.61816H412.725V4.43716L422.361 32.1002H432.987L442.623 4.43716V3.61816H434.97L428.076 23.4272H428.085Z" fill="white"/>
<path d="M410.598 3.61816H402.642V32.0972H410.598V3.61816Z" fill="white"/>
<path fill-rule="evenodd" clip-rule="evenodd" d="M466.263 3.61523H466.269L459.375 23.4302H458.85L452.016 3.62123H444.015V4.44623L454.482 34.5002H444.57V41.0972H454.257C458.394 41.0972 461.616 39.7022 463.179 35.2502C463.389 34.6562 473.913 4.44023 473.913 4.44023V3.61523H466.26H466.263Z" fill="white"/>
<path fill-rule="evenodd" clip-rule="evenodd" d="M362.097 2.84424C358.479 2.84424 355.098 4.68624 352.989 8.14824H352.5V3.64824H344.916V41.0852H352.974V28.4732H353.469C353.523 28.5482 353.577 28.6262 353.631 28.6892C354.99 30.3422 358.164 32.8622 362.112 32.8622C369.297 32.8622 374.211 26.6522 374.211 17.8562C374.211 9.06024 369.054 2.84724 362.097 2.84724V2.84424ZM359.691 26.6882C355.941 26.6882 353.352 23.7662 353.352 17.8592C353.352 11.9522 355.941 9.03024 359.691 9.03024C363.441 9.03024 366.156 12.0152 366.156 17.8592C366.156 23.7032 363.504 26.6882 359.691 26.6882Z" fill="white"/>
<path fill-rule="evenodd" clip-rule="evenodd" d="M394.197 3.61523C390.462 3.61523 388.065 4.23923 386.664 8.14823H386.184V3.61823H374.649V10.1582H377.223C378.072 10.1582 378.489 10.4582 378.597 11.1542V16.5902H378.627V32.1002H386.685V16.9922C386.685 13.0802 387.747 10.6832 391.659 10.6832H400.101V3.61523H394.2H394.197Z" fill="white"/>
<path d="M303.129 32.8442C311.415 32.8442 318.129 26.1302 318.129 17.8442C318.129 9.55824 311.415 2.84424 303.129 2.84424C294.843 2.84424 288.129 9.55824 288.129 17.8442C288.129 26.1302 294.843 32.8442 303.129 32.8442Z" fill="white"/>
<path d="M303.129 41.5681C308.79 41.5681 313.38 40.6052 313.38 39.4112C313.38 38.2172 308.79 37.2542 303.129 37.2542C297.468 37.2542 292.878 38.2172 292.878 39.4112C292.878 40.6052 297.468 41.5681 303.129 41.5681Z" fill="white"/>
<path d="M0.0869141 32.0881V0.432129H11.3729C13.8359 0.432129 15.8759 0.882129 17.4929 1.77613C19.1099 2.67013 20.3219 3.89713 21.1259 5.44813C21.9299 6.99913 22.3319 8.74213 22.3319 10.6801C22.3319 12.6181 21.9269 14.3791 21.1199 15.9301C20.3099 17.4811 19.0949 18.7081 17.4719 19.6081C15.8489 20.5111 13.8089 20.9611 11.3579 20.9611H3.5969V16.9111H10.9259C12.4829 16.9111 13.7429 16.6411 14.7119 16.1011C15.6809 15.5611 16.3919 14.8201 16.8449 13.8811C17.2979 12.9451 17.5259 11.8771 17.5259 10.6801C17.5259 9.48313 17.2979 8.42413 16.8449 7.49713C16.3919 6.57013 15.6779 5.84413 14.7029 5.31613C13.7309 4.79113 12.4469 4.52713 10.8629 4.52713H4.86589V32.0881H0.089917H0.0869141Z" fill="white"/>
<path d="M27.5401 32.0882V8.34619H32.0071V12.1172H32.2531C32.6851 10.8392 33.4501 9.83119 34.5481 9.09619C35.6461 8.35819 36.8881 7.99219 38.2801 7.99219C38.5681 7.99219 38.9101 8.00119 39.3091 8.02219C39.7051 8.04319 40.0171 8.06719 40.2451 8.10019V12.5222C40.0591 12.4712 39.7291 12.4112 39.2551 12.3452C38.7811 12.2762 38.3071 12.2462 37.8331 12.2462C36.7411 12.2462 35.7691 12.4742 34.9201 12.9332C34.0711 13.3922 33.3961 14.0252 32.9011 14.8352C32.4061 15.6452 32.1601 16.5632 32.1601 17.5952V32.0942H27.5371L27.5401 32.0882Z" fill="white"/>
<path d="M53.4 32.5681C51.174 32.5681 49.233 32.0581 47.574 31.0381C45.915 30.0181 44.625 28.5901 43.71 26.7571C42.792 24.9211 42.333 22.7791 42.333 20.3251C42.333 17.8711 42.792 15.7081 43.71 13.8631C44.628 12.0181 45.915 10.5871 47.574 9.56711C49.233 8.54711 51.174 8.03711 53.4 8.03711C55.626 8.03711 57.567 8.54711 59.229 9.56711C60.888 10.5871 62.175 12.0181 63.093 13.8631C64.011 15.7081 64.4699 17.8621 64.4699 20.3251C64.4699 22.7881 64.011 24.9211 63.093 26.7571C62.175 28.5931 60.888 30.0181 59.229 31.0381C57.57 32.0581 55.629 32.5681 53.4 32.5681ZM53.418 28.6891C54.861 28.6891 56.055 28.3081 57.003 27.5461C57.951 26.7841 58.653 25.7671 59.112 24.5011C59.571 23.2321 59.799 21.8371 59.799 20.3101C59.799 18.7831 59.568 17.4001 59.112 16.1281C58.653 14.8531 57.951 13.8331 57.003 13.0591C56.055 12.2881 54.858 11.9011 53.418 11.9011C51.978 11.9011 50.76 12.2881 49.809 13.0591C48.855 13.8331 48.15 14.8561 47.691 16.1281C47.232 17.4001 47.004 18.7951 47.004 20.3101C47.004 21.8251 47.235 23.2321 47.691 24.5011C48.15 25.7671 48.855 26.7841 49.809 27.5461C50.763 28.3081 51.966 28.6891 53.418 28.6891Z" fill="white"/>
<path d="M80.7 8.3462V12.0542H67.731V8.3462H80.7ZM71.208 2.6582H75.831V25.1192C75.831 26.0162 75.963 26.6882 76.233 27.1382C76.5 27.5852 76.848 27.8912 77.277 28.0502C77.706 28.2092 78.171 28.2902 78.675 28.2902C79.047 28.2902 79.371 28.2632 79.65 28.2122C79.929 28.1612 80.1449 28.1192 80.2979 28.0892L81.1319 31.9052C80.8649 32.0102 80.4839 32.1152 79.9889 32.2232C79.4939 32.3312 78.8759 32.3912 78.1349 32.4002C76.9199 32.4212 75.786 32.2052 74.733 31.7492C73.683 31.2962 72.831 30.5972 72.183 29.6462C71.532 28.6982 71.211 27.5072 71.211 26.0762V2.6582H71.208Z" fill="white"/>
<path d="M95.7868 32.568C93.4468 32.568 91.4338 32.067 89.7508 31.062C88.0648 30.057 86.7688 28.641 85.8538 26.811C84.9418 24.981 84.4858 22.836 84.4858 20.373C84.4858 17.91 84.9418 15.798 85.8538 13.944C86.7658 12.09 88.0438 10.641 89.6878 9.60004C91.3318 8.55904 93.2548 8.04004 95.4628 8.04004C96.8008 8.04004 98.0998 8.26204 99.3598 8.70604C100.617 9.14704 101.745 9.84304 102.744 10.791C103.743 11.739 104.532 12.966 105.108 14.478C105.684 15.987 105.972 17.82 105.972 19.974V21.612H87.0988V18.147H101.445C101.445 16.932 101.199 15.852 100.704 14.91C100.209 13.965 99.5158 13.221 98.6248 12.675C97.7338 12.129 96.6898 11.856 95.4958 11.856C94.1968 11.856 93.0658 12.174 92.1028 12.807C91.1398 13.44 90.3988 14.265 89.8768 15.282C89.3548 16.299 89.0968 17.397 89.0968 18.582V21.288C89.0968 22.875 89.3788 24.225 89.9398 25.338C90.5008 26.451 91.2868 27.3 92.2978 27.879C93.3058 28.461 94.4878 28.752 95.8378 28.752C96.7138 28.752 97.5118 28.623 98.2348 28.374C98.9578 28.122 99.5788 27.744 100.104 27.237C100.629 26.733 101.031 26.109 101.31 25.368L105.684 26.154C105.333 27.444 104.706 28.569 103.806 29.532C102.903 30.495 101.775 31.242 100.422 31.773C99.0658 32.304 97.5238 32.568 95.7928 32.568H95.7868Z" fill="white"/>
<path d="M121.122 32.568C118.824 32.568 116.847 32.046 115.194 30.999C113.541 29.952 112.269 28.509 111.384 26.664C110.496 24.822 110.055 22.707 110.055 20.328C110.055 17.949 110.508 15.786 111.414 13.935C112.32 12.084 113.598 10.641 115.248 9.60004C116.898 8.55904 118.839 8.04004 121.077 8.04004C122.88 8.04004 124.488 8.37304 125.901 9.03604C127.311 9.70204 128.454 10.632 129.324 11.826C130.194 13.02 130.713 14.418 130.878 16.017H126.381C126.135 14.904 125.571 13.947 124.689 13.143C123.807 12.339 122.631 11.937 121.158 11.937C119.868 11.937 118.743 12.273 117.78 12.948C116.817 13.623 116.067 14.583 115.53 15.822C114.993 17.064 114.726 18.531 114.726 20.22C114.726 21.909 114.99 23.445 115.515 24.705C116.04 25.962 116.784 26.937 117.75 27.627C118.713 28.317 119.85 28.662 121.158 28.662C122.034 28.662 122.829 28.5 123.546 28.176C124.263 27.852 124.866 27.384 125.355 26.778C125.844 26.172 126.186 25.437 126.384 24.582H130.881C130.716 26.118 130.215 27.489 129.381 28.695C128.547 29.901 127.431 30.849 126.033 31.539C124.638 32.229 123 32.574 121.125 32.574L121.122 32.568Z" fill="white"/>
<path d="M146.922 8.3462V12.0542H133.953V8.3462H146.922ZM137.43 2.6582H142.053V25.1192C142.053 26.0162 142.188 26.6882 142.455 27.1382C142.722 27.5852 143.07 27.8912 143.499 28.0502C143.928 28.2092 144.393 28.2902 144.897 28.2902C145.269 28.2902 145.593 28.2632 145.869 28.2122C146.148 28.1612 146.364 28.1192 146.52 28.0892L147.354 31.9052C147.084 32.0102 146.703 32.1152 146.211 32.2232C145.716 32.3312 145.098 32.3912 144.357 32.4002C143.142 32.4212 142.008 32.2052 140.955 31.7492C139.905 31.2962 139.053 30.5972 138.405 29.6462C137.757 28.6982 137.433 27.5072 137.433 26.0762V2.6582H137.43Z" fill="white"/>
<path d="M162.009 32.568C159.669 32.568 157.659 32.067 155.973 31.062C154.287 30.057 152.991 28.641 152.076 26.811C151.164 24.981 150.708 22.836 150.708 20.373C150.708 17.91 151.164 15.798 152.076 13.944C152.988 12.09 154.266 10.641 155.91 9.60004C157.554 8.55904 159.477 8.04004 161.685 8.04004C163.026 8.04004 164.322 8.26204 165.582 8.70604C166.839 9.14704 167.967 9.84304 168.966 10.791C169.965 11.739 170.754 12.966 171.33 14.478C171.906 15.987 172.194 17.82 172.194 19.974V21.612H153.321V18.147H167.667C167.667 16.932 167.421 15.852 166.926 14.91C166.431 13.965 165.738 13.221 164.847 12.675C163.956 12.129 162.912 11.856 161.718 11.856C160.419 11.856 159.288 12.174 158.325 12.807C157.362 13.44 156.621 14.265 156.099 15.282C155.577 16.296 155.319 17.397 155.319 18.582V21.288C155.319 22.875 155.601 24.225 156.162 25.338C156.723 26.451 157.509 27.3 158.52 27.879C159.531 28.458 160.71 28.752 162.06 28.752C162.936 28.752 163.734 28.623 164.457 28.374C165.177 28.122 165.801 27.744 166.326 27.237C166.851 26.73 167.253 26.109 167.532 25.368L171.906 26.154C171.555 27.444 170.928 28.569 170.028 29.532C169.128 30.495 167.997 31.242 166.644 31.773C165.288 32.304 163.746 32.568 162.015 32.568H162.009Z" fill="white"/>
<path d="M186.231 32.5531C184.314 32.5531 182.607 32.0611 181.107 31.0771C179.607 30.0931 178.431 28.6861 177.582 26.8561C176.733 25.0261 176.307 22.8301 176.307 20.2651C176.307 17.7001 176.736 15.5041 177.597 13.6801C178.458 11.8561 179.64 10.4581 181.143 9.48913C182.649 8.52013 184.353 8.03713 186.258 8.03713C187.731 8.03713 188.919 8.28313 189.822 8.77213C190.725 9.26113 191.424 9.83113 191.925 10.4791C192.426 11.1271 192.813 11.7001 193.092 12.1951H193.371V0.432129H197.994V32.0911H193.479V28.3981H193.092C192.813 28.9021 192.414 29.4781 191.895 30.1291C191.376 30.7801 190.662 31.3441 189.753 31.8301C188.847 32.3161 187.671 32.5561 186.228 32.5561L186.231 32.5531ZM187.251 28.6111C188.58 28.6111 189.705 28.2571 190.629 27.5521C191.55 26.8471 192.252 25.8661 192.732 24.6061C193.212 23.3491 193.449 21.8851 193.449 20.2171C193.449 18.5491 193.212 17.1271 192.738 15.8911C192.264 14.6551 191.568 13.6921 190.65 12.9991C189.732 12.3091 188.598 11.9641 187.248 11.9641C185.898 11.9641 184.698 12.3241 183.771 13.0441C182.844 13.7671 182.145 14.7481 181.677 15.9991C181.209 17.2441 180.972 18.6511 180.972 20.2171C180.972 21.7831 181.209 23.2321 181.683 24.5011C182.157 25.7671 182.859 26.7721 183.792 27.5071C184.725 28.2421 185.877 28.6111 187.248 28.6111H187.251Z" fill="white"/>
<path d="M216.483 32.0881V0.432129H221.106V12.1951H221.385C221.652 11.7001 222.039 11.1301 222.543 10.4791C223.047 9.82813 223.749 9.26113 224.646 8.77213C225.543 8.28313 226.728 8.03713 228.201 8.03713C230.118 8.03713 231.828 8.52313 233.334 9.48913C234.84 10.4581 236.022 11.8531 236.883 13.6801C237.744 15.5071 238.173 17.7001 238.173 20.2651C238.173 22.8301 237.744 25.0291 236.889 26.8561C236.034 28.6831 234.858 30.0931 233.364 31.0771C231.87 32.0611 230.166 32.5531 228.249 32.5531C226.806 32.5531 225.63 32.3131 224.718 31.8271C223.806 31.3411 223.092 30.7771 222.576 30.1261C222.06 29.4751 221.664 28.8991 221.385 28.3951H220.998V32.0881H216.483ZM221.01 20.2171C221.01 21.8881 221.253 23.3521 221.736 24.6061C222.219 25.8631 222.921 26.8441 223.839 27.5521C224.757 28.2601 225.879 28.6111 227.208 28.6111C228.537 28.6111 229.743 28.2421 230.67 27.5071C231.597 26.7721 232.302 25.7671 232.779 24.5011C233.259 23.2321 233.496 21.8071 233.496 20.2171C233.496 18.6271 233.262 17.2441 232.794 15.9991C232.326 14.7511 231.624 13.7671 230.691 13.0441C229.758 12.3241 228.597 11.9641 227.205 11.9641C225.813 11.9641 224.733 12.3091 223.812 12.9991C222.891 13.6891 222.192 14.6521 221.718 15.8911C221.244 17.1271 221.007 18.5701 221.007 20.2171H221.01Z" fill="white"/>
<path d="M245.436 40.9321C244.746 40.9321 244.116 40.8781 243.549 40.7701C242.982 40.6621 242.559 40.5451 242.28 40.4221L243.393 36.6361C244.662 36.9871 245.724 37.0141 246.585 36.7201C247.446 36.4261 248.169 35.5111 248.757 33.9751L249.33 32.4001L240.642 8.34912H245.589L251.601 26.7751H251.847L257.859 8.34912L262.851 8.39412L253.035 35.2591C252.582 36.4861 252.006 37.5211 251.304 38.3671C250.602 39.2131 249.768 39.8521 248.799 40.2841C247.83 40.7191 246.708 40.9351 245.43 40.9351L245.436 40.9321Z" fill="white"/>
</svg>
