<svg width="475" height="42" viewBox="0 0 475 42" fill="none" xmlns="http://www.w3.org/2000/svg">
<path fill-rule="evenodd" clip-rule="evenodd" d="M428.741 23.6498H428.216L421.382 3.84082H413.381V4.65982L423.017 32.3228H433.643L443.279 4.65982V3.84082H435.626L428.732 23.6498H428.741Z" fill="#010110"/>
<path d="M411.254 3.84082H403.298V32.3198H411.254V3.84082Z" fill="#010110"/>
<path fill-rule="evenodd" clip-rule="evenodd" d="M466.919 3.83789H466.925L460.031 23.6529H459.506L452.672 3.84389H444.671V4.66889L455.138 34.7229H445.226V41.3199H454.913C459.05 41.3199 462.272 39.9249 463.835 35.4729C464.045 34.8789 474.569 4.66289 474.569 4.66289V3.83789H466.916H466.919Z" fill="#010110"/>
<path fill-rule="evenodd" clip-rule="evenodd" d="M362.753 3.06689C359.135 3.06689 355.754 4.90889 353.645 8.37089H353.156V3.87089H345.572V41.3079H353.63V28.6959H354.125C354.179 28.7709 354.233 28.8489 354.287 28.9119C355.646 30.5649 358.82 33.0849 362.768 33.0849C369.953 33.0849 374.867 26.8749 374.867 18.0789C374.867 9.28289 369.71 3.06989 362.753 3.06989V3.06689ZM360.347 26.9109C356.597 26.9109 354.008 23.9889 354.008 18.0819C354.008 12.1749 356.597 9.25289 360.347 9.25289C364.097 9.25289 366.812 12.2379 366.812 18.0819C366.812 23.9259 364.16 26.9109 360.347 26.9109Z" fill="#010110"/>
<path fill-rule="evenodd" clip-rule="evenodd" d="M394.853 3.83789C391.118 3.83789 388.721 4.46189 387.32 8.37089H386.84V3.84089H375.305V10.3809H377.879C378.728 10.3809 379.145 10.6809 379.253 11.3769V16.8129H379.283V32.3229H387.341V17.2149C387.341 13.3029 388.403 10.9059 392.315 10.9059H400.757V3.83789H394.856H394.853Z" fill="#010110"/>
<path d="M303.785 33.0669C312.071 33.0669 318.785 26.3529 318.785 18.0669C318.785 9.78089 312.071 3.06689 303.785 3.06689C295.499 3.06689 288.785 9.78089 288.785 18.0669C288.785 26.3529 295.499 33.0669 303.785 33.0669Z" fill="#010110"/>
<path d="M303.785 41.7906C309.446 41.7906 314.036 40.8276 314.036 39.6336C314.036 38.4396 309.446 37.4766 303.785 37.4766C298.124 37.4766 293.534 38.4396 293.534 39.6336C293.534 40.8276 298.124 41.7906 303.785 41.7906Z" fill="#010110"/>
<path d="M0.743164 32.3108V0.654785H12.0291C14.4921 0.654785 16.5322 1.10479 18.1492 1.99879C19.7662 2.89279 20.9781 4.11979 21.7821 5.67078C22.5861 7.22179 22.9881 8.96479 22.9881 10.9028C22.9881 12.8408 22.5831 14.6018 21.7761 16.1528C20.9661 17.7038 19.7511 18.9308 18.1281 19.8308C16.5051 20.7338 14.4652 21.1838 12.0142 21.1838H4.25315V17.1338H11.5821C13.1391 17.1338 14.3992 16.8638 15.3682 16.3238C16.3372 15.7838 17.0481 15.0428 17.5011 14.1038C17.9541 13.1678 18.1821 12.0998 18.1821 10.9028C18.1821 9.70579 17.9541 8.64679 17.5011 7.71979C17.0481 6.79279 16.3342 6.06679 15.3592 5.53879C14.3872 5.01379 13.1031 4.74979 11.5191 4.74979H5.52214V32.3108H0.746167H0.743164Z" fill="#010110"/>
<path d="M28.1964 32.3108V8.56884H32.6633V12.3398H32.9094C33.3414 11.0618 34.1063 10.0538 35.2043 9.31884C36.3023 8.58084 37.5444 8.21484 38.9364 8.21484C39.2244 8.21484 39.5664 8.22384 39.9654 8.24484C40.3614 8.26584 40.6733 8.28984 40.9013 8.32284V12.7448C40.7153 12.6938 40.3854 12.6338 39.9114 12.5678C39.4374 12.4988 38.9634 12.4688 38.4894 12.4688C37.3974 12.4688 36.4253 12.6968 35.5763 13.1558C34.7273 13.6148 34.0523 14.2478 33.5573 15.0578C33.0623 15.8678 32.8163 16.7858 32.8163 17.8178V32.3168H28.1934L28.1964 32.3108Z" fill="#010110"/>
<path d="M54.0562 32.7908C51.8302 32.7908 49.8892 32.2808 48.2302 31.2608C46.5712 30.2408 45.2812 28.8128 44.3662 26.9798C43.4482 25.1438 42.9893 23.0018 42.9893 20.5478C42.9893 18.0938 43.4482 15.9308 44.3662 14.0858C45.2842 12.2408 46.5712 10.8098 48.2302 9.78977C49.8892 8.76977 51.8302 8.25977 54.0562 8.25977C56.2822 8.25977 58.2232 8.76977 59.8852 9.78977C61.5442 10.8098 62.8312 12.2408 63.7492 14.0858C64.6672 15.9308 65.1262 18.0848 65.1262 20.5478C65.1262 23.0108 64.6672 25.1438 63.7492 26.9798C62.8312 28.8158 61.5442 30.2408 59.8852 31.2608C58.2262 32.2808 56.2852 32.7908 54.0562 32.7908ZM54.0742 28.9118C55.5172 28.9118 56.7112 28.5308 57.6592 27.7688C58.6072 27.0068 59.3092 25.9898 59.7682 24.7238C60.2272 23.4548 60.4552 22.0598 60.4552 20.5328C60.4552 19.0058 60.2242 17.6228 59.7682 16.3508C59.3092 15.0758 58.6072 14.0558 57.6592 13.2818C56.7112 12.5108 55.5142 12.1238 54.0742 12.1238C52.6342 12.1238 51.4162 12.5108 50.4652 13.2818C49.5112 14.0558 48.8062 15.0788 48.3472 16.3508C47.8882 17.6228 47.6602 19.0178 47.6602 20.5328C47.6602 22.0478 47.8912 23.4548 48.3472 24.7238C48.8062 25.9898 49.5112 27.0068 50.4652 27.7688C51.4192 28.5308 52.6222 28.9118 54.0742 28.9118Z" fill="#010110"/>
<path d="M81.3562 8.56886V12.2769H68.3872V8.56886H81.3562ZM71.8642 2.88086H76.4872V25.3419C76.4872 26.2389 76.6192 26.9109 76.8892 27.3609C77.1562 27.8079 77.5042 28.1139 77.9332 28.2729C78.3622 28.4319 78.8272 28.5129 79.3312 28.5129C79.7032 28.5129 80.0272 28.4859 80.3062 28.4349C80.5852 28.3839 80.8012 28.3419 80.9542 28.3119L81.7882 32.1279C81.5212 32.2329 81.1402 32.3379 80.6452 32.4459C80.1502 32.5539 79.5322 32.6139 78.7912 32.6229C77.5762 32.6439 76.4422 32.4279 75.3892 31.9719C74.3392 31.5189 73.4872 30.8199 72.8392 29.8689C72.1882 28.9209 71.8672 27.7299 71.8672 26.2989V2.88086H71.8642Z" fill="#010110"/>
<path d="M96.4431 32.7907C94.1031 32.7907 92.09 32.2897 90.407 31.2847C88.721 30.2797 87.425 28.8637 86.51 27.0337C85.598 25.2037 85.1421 23.0587 85.1421 20.5957C85.1421 18.1327 85.598 16.0207 86.51 14.1667C87.422 12.3127 88.7 10.8637 90.344 9.8227C91.988 8.7817 93.911 8.2627 96.119 8.2627C97.457 8.2627 98.756 8.4847 100.016 8.9287C101.273 9.3697 102.401 10.0657 103.4 11.0137C104.399 11.9617 105.188 13.1887 105.764 14.7007C106.34 16.2097 106.628 18.0427 106.628 20.1967V21.8347H87.7551V18.3697H102.101C102.101 17.1547 101.855 16.0747 101.36 15.1327C100.865 14.1877 100.172 13.4437 99.2811 12.8977C98.3901 12.3517 97.3461 12.0787 96.1521 12.0787C94.8531 12.0787 93.7221 12.3967 92.7591 13.0297C91.7961 13.6627 91.0551 14.4877 90.5331 15.5047C90.0111 16.5217 89.7531 17.6197 89.7531 18.8047V21.5107C89.7531 23.0977 90.0351 24.4477 90.5961 25.5607C91.1571 26.6737 91.943 27.5227 92.954 28.1017C93.962 28.6837 95.144 28.9747 96.494 28.9747C97.37 28.9747 98.168 28.8457 98.891 28.5967C99.614 28.3447 100.235 27.9667 100.76 27.4597C101.285 26.9557 101.687 26.3317 101.966 25.5907L106.34 26.3767C105.989 27.6667 105.362 28.7917 104.462 29.7547C103.559 30.7177 102.431 31.4647 101.078 31.9957C99.7221 32.5267 98.1801 32.7907 96.4491 32.7907H96.4431Z" fill="#010110"/>
<path d="M121.778 32.7907C119.48 32.7907 117.503 32.2687 115.85 31.2217C114.197 30.1747 112.925 28.7317 112.04 26.8867C111.152 25.0447 110.711 22.9297 110.711 20.5507C110.711 18.1717 111.164 16.0087 112.07 14.1577C112.976 12.3067 114.254 10.8637 115.904 9.8227C117.554 8.7817 119.495 8.2627 121.733 8.2627C123.536 8.2627 125.144 8.5957 126.557 9.2587C127.967 9.9247 129.11 10.8547 129.98 12.0487C130.85 13.2427 131.369 14.6407 131.534 16.2397H127.037C126.791 15.1267 126.227 14.1697 125.345 13.3657C124.463 12.5617 123.287 12.1597 121.814 12.1597C120.524 12.1597 119.399 12.4957 118.436 13.1707C117.473 13.8457 116.723 14.8057 116.186 16.0447C115.649 17.2867 115.382 18.7537 115.382 20.4427C115.382 22.1317 115.646 23.6677 116.171 24.9277C116.696 26.1847 117.44 27.1597 118.406 27.8497C119.369 28.5397 120.506 28.8847 121.814 28.8847C122.69 28.8847 123.485 28.7227 124.202 28.3987C124.919 28.0747 125.522 27.6067 126.011 27.0007C126.5 26.3947 126.842 25.6597 127.04 24.8047H131.537C131.372 26.3407 130.871 27.7117 130.037 28.9177C129.203 30.1237 128.087 31.0717 126.689 31.7617C125.294 32.4517 123.656 32.7967 121.781 32.7967L121.778 32.7907Z" fill="#010110"/>
<path d="M147.578 8.56886V12.2769H134.609V8.56886H147.578ZM138.086 2.88086H142.709V25.3419C142.709 26.2389 142.844 26.9109 143.111 27.3609C143.378 27.8079 143.726 28.1139 144.155 28.2729C144.584 28.4319 145.049 28.5129 145.553 28.5129C145.925 28.5129 146.249 28.4859 146.525 28.4349C146.804 28.3839 147.02 28.3419 147.176 28.3119L148.01 32.1279C147.74 32.2329 147.359 32.3379 146.867 32.4459C146.372 32.5539 145.754 32.6139 145.013 32.6229C143.798 32.6439 142.664 32.4279 141.611 31.9719C140.561 31.5189 139.709 30.8199 139.061 29.8689C138.413 28.9209 138.089 27.7299 138.089 26.2989V2.88086H138.086Z" fill="#010110"/>
<path d="M162.665 32.7907C160.325 32.7907 158.315 32.2897 156.629 31.2847C154.943 30.2797 153.647 28.8637 152.732 27.0337C151.82 25.2037 151.364 23.0587 151.364 20.5957C151.364 18.1327 151.82 16.0207 152.732 14.1667C153.644 12.3127 154.922 10.8637 156.566 9.8227C158.21 8.7817 160.133 8.2627 162.341 8.2627C163.682 8.2627 164.978 8.4847 166.238 8.9287C167.495 9.3697 168.623 10.0657 169.622 11.0137C170.621 11.9617 171.41 13.1887 171.986 14.7007C172.562 16.2097 172.85 18.0427 172.85 20.1967V21.8347H153.977V18.3697H168.323C168.323 17.1547 168.077 16.0747 167.582 15.1327C167.087 14.1877 166.394 13.4437 165.503 12.8977C164.612 12.3517 163.568 12.0787 162.374 12.0787C161.075 12.0787 159.944 12.3967 158.981 13.0297C158.018 13.6627 157.277 14.4877 156.755 15.5047C156.233 16.5187 155.975 17.6197 155.975 18.8047V21.5107C155.975 23.0977 156.257 24.4477 156.818 25.5607C157.379 26.6737 158.165 27.5227 159.176 28.1017C160.187 28.6807 161.366 28.9747 162.716 28.9747C163.592 28.9747 164.39 28.8457 165.113 28.5967C165.833 28.3447 166.457 27.9667 166.982 27.4597C167.507 26.9527 167.909 26.3317 168.188 25.5907L172.562 26.3767C172.211 27.6667 171.584 28.7917 170.684 29.7547C169.784 30.7177 168.653 31.4647 167.3 31.9957C165.944 32.5267 164.402 32.7907 162.671 32.7907H162.665Z" fill="#010110"/>
<path d="M186.887 32.7758C184.97 32.7758 183.263 32.2838 181.763 31.2998C180.263 30.3158 179.087 28.9088 178.238 27.0788C177.389 25.2488 176.963 23.0528 176.963 20.4878C176.963 17.9228 177.392 15.7268 178.253 13.9028C179.114 12.0788 180.296 10.6808 181.799 9.71179C183.305 8.74279 185.009 8.25979 186.914 8.25979C188.387 8.25979 189.575 8.50579 190.478 8.99479C191.381 9.48379 192.08 10.0538 192.581 10.7018C193.082 11.3498 193.469 11.9228 193.748 12.4178H194.027V0.654785H198.65V32.3138H194.135V28.6208H193.748C193.469 29.1248 193.07 29.7008 192.551 30.3518C192.032 31.0028 191.318 31.5668 190.409 32.0528C189.503 32.5388 188.327 32.7788 186.884 32.7788L186.887 32.7758ZM187.907 28.8338C189.236 28.8338 190.361 28.4798 191.285 27.7748C192.206 27.0698 192.908 26.0888 193.388 24.8288C193.868 23.5718 194.105 22.1078 194.105 20.4398C194.105 18.7718 193.868 17.3498 193.394 16.1138C192.92 14.8778 192.224 13.9148 191.306 13.2218C190.388 12.5318 189.254 12.1868 187.904 12.1868C186.554 12.1868 185.354 12.5468 184.427 13.2668C183.5 13.9898 182.801 14.9708 182.333 16.2218C181.865 17.4668 181.628 18.8738 181.628 20.4398C181.628 22.0058 181.865 23.4548 182.339 24.7238C182.813 25.9898 183.515 26.9948 184.448 27.7298C185.381 28.4648 186.533 28.8338 187.904 28.8338H187.907Z" fill="#010110"/>
<path d="M217.139 32.3108V0.654785H221.762V12.4178H222.041C222.308 11.9228 222.695 11.3528 223.199 10.7018C223.703 10.0508 224.405 9.48378 225.302 8.99479C226.199 8.50578 227.384 8.25978 228.857 8.25978C230.774 8.25978 232.484 8.74578 233.99 9.71178C235.496 10.6808 236.678 12.0758 237.539 13.9028C238.4 15.7298 238.829 17.9228 238.829 20.4878C238.829 23.0528 238.4 25.2518 237.545 27.0788C236.69 28.9058 235.514 30.3158 234.02 31.2998C232.526 32.2838 230.822 32.7758 228.905 32.7758C227.462 32.7758 226.286 32.5358 225.374 32.0498C224.462 31.5638 223.748 30.9998 223.232 30.3488C222.716 29.6978 222.32 29.1218 222.041 28.6178H221.654V32.3108H217.139ZM221.666 20.4398C221.666 22.1108 221.909 23.5748 222.392 24.8288C222.875 26.0858 223.577 27.0668 224.495 27.7748C225.413 28.4828 226.535 28.8338 227.864 28.8338C229.193 28.8338 230.399 28.4648 231.326 27.7298C232.253 26.9948 232.958 25.9898 233.435 24.7238C233.915 23.4548 234.152 22.0298 234.152 20.4398C234.152 18.8498 233.918 17.4668 233.45 16.2218C232.982 14.9738 232.28 13.9898 231.347 13.2668C230.414 12.5468 229.253 12.1868 227.861 12.1868C226.469 12.1868 225.389 12.5318 224.468 13.2218C223.547 13.9118 222.848 14.8748 222.374 16.1138C221.9 17.3498 221.663 18.7928 221.663 20.4398H221.666Z" fill="#010110"/>
<path d="M246.092 41.1548C245.402 41.1548 244.772 41.1008 244.205 40.9928C243.638 40.8848 243.215 40.7678 242.936 40.6448L244.049 36.8588C245.318 37.2098 246.38 37.2368 247.241 36.9428C248.102 36.6488 248.825 35.7338 249.413 34.1978L249.986 32.6228L241.298 8.57178H246.245L252.257 26.9978H252.503L258.515 8.57178L263.507 8.61678L253.691 35.4818C253.238 36.7088 252.662 37.7438 251.96 38.5898C251.258 39.4358 250.424 40.0748 249.455 40.5068C248.486 40.9418 247.364 41.1578 246.086 41.1578L246.092 41.1548Z" fill="#010110"/>
</svg>
