<svg width="258" height="78" viewBox="0 0 258 78" fill="none" xmlns="http://www.w3.org/2000/svg">
<path fill-rule="evenodd" clip-rule="evenodd" d="M166.344 41.9129H165.294L151.626 2.29492H135.624V3.93292L154.896 59.2589H176.148L195.42 3.93292V2.29492H180.114L166.326 41.9129H166.344Z" fill="#010110"/>
<path d="M131.364 2.29492H115.452V59.2529H131.364V2.29492Z" fill="#010110"/>
<path fill-rule="evenodd" clip-rule="evenodd" d="M242.694 2.28906H242.706L228.918 41.9191H227.868L214.2 2.30106H198.198V3.95106L219.132 64.0591H199.308V77.2531H218.682C226.956 77.2531 233.4 74.4631 236.526 65.5591C236.946 64.3711 257.994 3.93906 257.994 3.93906V2.28906H242.688H242.694Z" fill="#010110"/>
<path fill-rule="evenodd" clip-rule="evenodd" d="M34.3679 0.74707C27.1319 0.74707 20.3698 4.43107 16.1518 11.3551H15.1738V2.35507H0.00585938V77.2291H16.1219V52.0051H17.1119C17.2199 52.1551 17.3279 52.3111 17.4359 52.4371C20.1539 55.7431 26.5019 60.7831 34.3979 60.7831C48.7679 60.7831 58.5959 48.3631 58.5959 30.7711C58.5959 13.1791 48.2759 0.74707 34.3679 0.74707ZM29.5499 48.4351C22.0499 48.4351 16.8719 42.5911 16.8719 30.7771C16.8719 18.9631 22.0499 13.1191 29.5499 13.1191C37.0499 13.1191 42.4798 19.0891 42.4798 30.7771C42.4798 42.4651 37.1759 48.4351 29.5499 48.4351Z" fill="#010110"/>
<path fill-rule="evenodd" clip-rule="evenodd" d="M98.5618 2.28906C91.0918 2.28906 86.2978 3.53706 83.4958 11.3551H82.5358V2.29506H59.4658V15.3751H64.6138C66.3118 15.3751 67.1458 15.9751 67.3618 17.3671V28.2391H67.4218V59.2591H83.5378V29.0431C83.5378 21.2191 85.6618 16.4251 93.4858 16.4251H110.37V2.28906H98.5678H98.5618Z" fill="#010110"/>
</svg>
