<svg xmlns="http://www.w3.org/2000/svg" viewBox="0 0 512 640" x="0px" y="0px"><g data-name="Outline"><path d="m352.24,138.05c3.58,7.46,10.95,12.1,19.23,12.1h12.1v51.41c0,14.58,11.86,26.44,26.44,26.44h36.22c14.58,0,26.44-11.86,26.44-26.44v-51.41h12.05c8.28,0,15.65-4.64,19.23-12.11s2.58-16.12-2.61-22.58l-52.7-65.58c-9.95-13.06-31.31-13.05-41.24.02l-52.58,65.58c-5.18,6.46-6.17,15.11-2.59,22.57Zm11.95-15.07l52.58-65.58c5.43-7.14,17.09-7.14,22.52-.01l52.7,65.58c2.3,2.87,2.73,6.56,1.14,9.88s-4.74,5.3-8.41,5.3h-18.05c-3.31,0-6,2.69-6,6v57.41c0,7.96-6.48,14.44-14.44,14.44h-36.22c-7.96,0-14.44-6.48-14.44-14.44v-57.41c0-3.31-2.69-6-6-6h-18.1c-3.68,0-6.82-1.98-8.41-5.29-1.59-3.31-1.17-7.01,1.13-9.87Z"/><path d="m63.36,462.12c9.95,13.06,31.31,13.05,41.24-.02l52.58-65.58c5.18-6.46,6.17-15.11,2.59-22.57-3.58-7.46-10.95-12.1-19.23-12.1h-12.1v-51.41c0-14.58-11.86-26.44-26.44-26.44h-36.22c-14.58,0-26.44,11.86-26.44,26.44v51.41h-12.05c-8.28,0-15.65,4.64-19.23,12.11s-2.58,16.12,2.61,22.58l52.7,65.58Zm-44.49-82.97c1.59-3.32,4.74-5.3,8.41-5.3h18.05c3.31,0,6-2.69,6-6v-57.41c0-7.96,6.48-14.44,14.44-14.44h36.22c7.96,0,14.44,6.48,14.44,14.44v57.41c0,3.31,2.69,6,6,6h18.1c3.68,0,6.82,1.98,8.41,5.29,1.59,3.31,1.17,7.01-1.13,9.87l-52.58,65.58c-5.43,7.14-17.09,7.14-22.52.01l-52.7-65.58c-2.3-2.87-2.73-6.56-1.14-9.88Z"/><path d="m148.89,191.19c-11.64,0-20.75,7.53-20.75,17.15s9.11,17.15,20.75,17.15,20.75-7.53,20.75-17.15-9.11-17.15-20.75-17.15Zm0,22.3c-5.01,0-8.75-2.72-8.75-5.15s3.74-5.15,8.75-5.15,8.75,2.72,8.75,5.15-3.74,5.15-8.75,5.15Z"/><path d="m211.49,191.19c-11.64,0-20.75,7.53-20.75,17.15s9.11,17.15,20.75,17.15,20.75-7.53,20.75-17.15-9.11-17.15-20.75-17.15Zm0,22.3c-5.01,0-8.75-2.72-8.75-5.15s3.74-5.15,8.75-5.15,8.75,2.72,8.75,5.15-3.74,5.15-8.75,5.15Z"/><path d="m30.84,120.59c-1.44,1.28-2.87,2.61-4.27,4.02-10.62,10.19-8.24,29.18,4.57,36.42,13.42,7.88,25.02,11.29,38.11,9.85,6.34-.8,12.67-3.04,18.87-6.64,2.74,4.07,5.83,7.77,9.24,11.02,9.68,9.21,11.64,16.24,6.75,28.48-6.6,16.49.18,38.23,17.49,40.49,6.34,13.9,17.74,22.62,30.37,23,1.85.05,54.61.05,56.46,0,12.63-.38,24.03-9.1,30.37-23,17.31-2.27,24.08-24.03,17.47-40.53-4.88-12.19-2.92-19.23,6.76-28.44,3.41-3.25,6.5-6.95,9.24-11.02,6.2,3.61,12.52,5.85,18.87,6.64,13.09,1.45,24.7-1.97,38.11-9.85,12.81-7.25,15.19-26.24,4.57-36.42-1.4-1.41-2.82-2.74-4.27-4.02,10.27-9.52,17.69-21.82,21.53-35.75,8.03-29.14-.73-60.08-21.29-75.36-8.71-8.08-23.78-1.03-23.57,10.84.39,22.64-21.22,35.64-36.49,42.06-12-15.67-29.47-24.34-50.06-24.34-10.35,0-19.4,3.94-26.66,7.1-12.22,5.43-13.39,5.42-25.61,0-7.27-3.16-16.31-7.1-26.66-7.1-20.59,0-38.07,8.67-50.06,24.34-15.27-6.42-36.88-19.42-36.49-42.06.21-11.88-14.87-18.92-23.57-10.84C10.03,24.75,1.28,55.69,9.31,84.84c3.84,13.93,11.26,26.23,21.53,35.75Zm36.92,38.38c-11.45,1.43-22.87-3.68-30.43-8.23-6.24-3.53-7.39-12.74-2.22-17.7,1.75-1.77,3.54-3.4,5.36-4.9,10.58,7.01,23.05,11.5,37.23,13.39,1.23,4.27,2.75,8.36,4.55,12.23-4.85,2.85-9.7,4.6-14.49,5.2Zm140.31,96.26c-3.65.11-52.11.11-55.75,0-5.82-.17-11.36-3.46-15.64-9,3.19.13,6.24.13,8.98.13,0,0,74.86,0,78.05-.13-4.28,5.54-9.81,8.83-15.63,9Zm38.75-35.3c-.53,11.06-8.03,14.43-32.09,14.43h-69.07c-24.06,0-31.56-3.37-32.09-14.41-.28-5.39,1.05-10.88,3.4-15.66,5.05-9.96,15.14-16.95,26.87-17.6,6.88-.38,13.55,1.39,19.28,5.1,10.38,6.74,23.78,6.73,34.16,0,5.73-3.72,12.39-5.48,19.28-5.1,11.73.64,21.82,7.63,26.87,17.59,2.35,4.77,3.69,10.26,3.41,15.64Zm76.24-69.18c-7.56,4.55-18.98,9.67-30.43,8.23-4.78-.6-9.64-2.35-14.49-5.2,1.8-3.88,3.32-7.97,4.55-12.23,14.18-1.9,26.65-6.38,37.23-13.39,1.81,1.5,3.61,3.13,5.36,4.9,5.17,4.96,4.02,14.17-2.22,17.7Zm-4.84-130.4c.13-2.6,2.41-2.9,4.25-1.35,15.69,13.21,23.7,38.49,17.04,62.66-6.98,25.34-26.51,42.26-54.14,47.31,2.34-16.54.41-33.7-5.52-48.54-1.09-2.72-2.3-5.32-3.61-7.81,16.29-7.28,40.51-23.38,41.97-52.28ZM91.68,84.88c5.2-13.01,18.49-34.83,49.05-34.83,7.86,0,14.98,3.1,21.87,6.1,14.72,6.78,20.47,6.77,35.18,0,6.89-3,14.02-6.1,21.88-6.1,30.56,0,43.85,21.82,49.05,34.83,11.29,28.25,5.3,63.37-13.95,81.68-5.31,5.06-8.94,10.02-10.97,15.25-6.24-7.75-12.84-12.52-18.96-16.94-6.98-5.04-13.1-9.47-17.73-17.87,4.95,2.34,10.74,3.33,16.37,2.81,15.44-1.37,27.27-13.2,29.44-28.69,1.68-11.97-12.51-20.79-22.52-14.04-12.55,8.47-24.31,11.14-35.49,8.88-3.89-.91-7.77,2.73-7.13,6.66,4.41,33.64,17.46,42.89,30.27,52.16-9.7-.74-19.21,1.7-27.3,6.95-6.41,4.16-14.69,4.16-21.09,0-8.09-5.25-17.61-7.7-27.3-6.95,12.81-9.27,25.87-18.52,30.27-52.16.64-3.92-3.24-7.57-7.13-6.66-11.17,2.26-22.93-.41-35.49-8.88-10.01-6.75-24.2,2.07-22.52,14.04,2.17,15.49,14,27.32,29.44,28.69,5.63.52,11.42-.47,16.37-2.81-4.63,8.41-10.75,12.84-17.73,17.87-6.12,4.42-12.72,9.19-18.97,16.94-2.03-5.23-5.65-10.2-10.96-15.26-19.25-18.31-25.24-53.43-13.95-81.68Zm111.83,43.79c10.84-.29,22.03-4.15,33.4-11.52,2.32-1.13,4.1.04,4.08,2.51-1.41,11.55-10.35,17.46-18.59,18.19-6.27.55-13.74-1.79-18.89-9.19Zm-65.53,9.19c-8.24-.73-17.18-6.64-18.59-18.19-.12-2.6,2.14-3.6,4.08-2.51,11.37,7.37,22.56,11.22,33.4,11.52-5.15,7.4-12.63,9.74-18.89,9.19ZM37.92,18.99c1.84-1.55,3.99-1.24,4.25,1.35.05,28.94,25.69,45,41.97,52.28-1.31,2.48-2.52,5.08-3.61,7.8-5.93,14.83-7.86,31.99-5.52,48.54-27.63-5.06-47.16-21.97-54.14-47.31-6.66-24.17,1.35-49.44,17.04-62.66Z"/><path d="m506,313.98c0-25.35-20.63-45.98-45.98-45.98-14.68,0-28.43,7.09-37.04,18.78-8.71-3.08-17.94-4.68-27.56-4.68-7.2,0-12.33,1.55-16.4,2.92-5.38,1.81-7.74,1.81-13.12,0-4.08-1.37-9.2-2.92-16.4-2.92-9.61,0-18.84,1.6-27.56,4.68-8.61-11.69-22.36-18.78-37.04-18.78-25.35,0-45.98,20.63-45.98,45.98,0,17.03,9.21,32.31,23.86,40.31-1.67,5.84-2.91,11.85-3.67,17.97-.74,5.98-2.94,11.69-6.37,16.52-7.64,10.76-11.51,22.28-11.51,34.24,0,22.73,14.04,43.88,39.54,59.55,24.58,15.11,57.15,23.44,91.69,23.44s67.11-8.32,91.69-23.44c25.49-15.67,39.54-36.82,39.54-59.55,0-11.96-3.87-23.48-11.51-34.24-3.43-4.83-5.63-10.54-6.37-16.52-.76-6.12-2-12.13-3.67-17.97,14.66-8,23.86-23.28,23.86-40.31Zm-255.08,0c0-18.74,15.24-33.98,33.98-33.98,9.94,0,19.32,4.4,25.71,11.8-3.49,1.87-6.88,4-10.14,6.4-4.08-4.05-9.62-6.41-15.58-6.41-12.24,0-22.19,9.95-22.19,22.19,0,7.28,3.48,13.86,9.12,17.94-1.86,3.49-3.56,7.08-5.06,10.78-9.78-6.14-15.85-16.85-15.85-28.72Zm40.32-7.95c-1.36,1.31-2.7,2.66-4.01,4.07-3.29,3.57-6.32,7.41-9.11,11.46-2.11-1.9-3.41-4.64-3.41-7.58,0-5.62,4.57-10.19,10.19-10.19,2.36,0,4.57.81,6.34,2.23Zm191.15,89.7c6.17,8.69,9.3,17.87,9.3,27.29,0,18.4-12.01,35.92-33.82,49.33-22.72,13.97-53.05,21.66-85.41,21.66s-62.69-7.69-85.41-21.66c-21.81-13.41-33.82-30.93-33.82-49.33,0-9.42,3.13-18.6,9.29-27.29,4.58-6.44,7.51-14.05,8.5-22,4.89-39.57,33.41-79.63,78.47-79.63,5.34,0,9.12,1.2,12.78,2.36,6.18,2.57,14.2,2.56,20.38,0,3.65-1.16,7.43-2.36,12.78-2.36,45.05,0,73.58,40.06,78.47,79.63.98,7.95,3.92,15.56,8.5,22Zm-28.71-89.7c1.77-1.42,3.98-2.23,6.34-2.23,5.62,0,10.19,4.57,10.19,10.19,0,2.93-1.3,5.68-3.41,7.58-2.78-4.05-5.82-7.89-9.11-11.46-1.3-1.41-2.65-2.76-4.01-4.07Zm24.47,36.68c-1.5-3.7-3.19-7.3-5.06-10.78,5.63-4.08,9.12-10.66,9.12-17.94,0-12.24-9.95-22.19-22.19-22.19-5.96,0-11.5,2.36-15.58,6.41-3.26-2.4-6.65-4.53-10.14-6.4,6.39-7.39,15.77-11.8,25.71-11.8,18.74,0,33.98,15.24,33.98,33.98,0,11.87-6.07,22.58-15.85,28.72Z"/><path d="m398.75,376.1c-15.97-10.83-36.6-10.83-52.57,0-9.51,6.45-19.5,18.31-26.21,27.12-9.57,12.58-8.83,30.11,1.77,41.67,10.64,11.61,27.71,17.49,50.72,17.49s40.74-6.11,51.32-18.17c10.04-11.44,10.54-28.68,1.17-40.98-6.71-8.81-16.7-20.67-26.21-27.13Zm16.02,60.19c-8.2,9.35-22.44,14.09-42.3,14.09s-33.59-4.58-41.87-13.6c-6.67-7.28-7.12-18.34-1.07-26.29,6.16-8.1,15.22-18.91,23.39-24.45,11.87-8.05,27.22-8.05,39.1,0,8.18,5.54,17.24,16.36,23.4,24.46,5.92,7.78,5.65,18.63-.64,25.8Z"/><path d="m329.83,379.12c8.8,0,16.51-5.06,19.19-12.58,1.11-3.12-.52-6.55-3.64-7.66-3.12-1.11-6.55.52-7.66,3.64-.95,2.67-4.26,4.6-7.88,4.6s-6.93-1.94-7.88-4.6c-1.11-3.12-4.54-4.75-7.66-3.64-3.12,1.11-4.75,4.54-3.64,7.66,2.68,7.52,10.39,12.58,19.19,12.58Z"/><path d="m430.64,358.88c-3.12-1.11-6.55.52-7.66,3.64-.95,2.67-4.26,4.6-7.88,4.6s-6.93-1.94-7.88-4.6c-1.11-3.12-4.54-4.75-7.66-3.64-3.12,1.11-4.75,4.54-3.64,7.66,2.68,7.52,10.39,12.58,19.19,12.58s16.51-5.06,19.19-12.58c1.11-3.12-.52-6.55-3.64-7.66Z"/><path d="m391.95,424.42l-13.48-5.62v-.07c1.14-.54,2.22-1.25,3.2-2.12l8.23-7.26c4.38-3.87,5.88-9.9,3.81-15.37-2.07-5.47-7.18-9-13.03-9h-16.45c-5.85,0-10.96,3.53-13.03,9-2.07,5.47-.57,11.5,3.81,15.37l8.23,7.26c.99.88,2.09,1.59,3.24,2.13v.06l-13.48,5.62c-3.06,1.28-4.5,4.79-3.23,7.85,1.28,3.06,4.79,4.5,7.85,3.23l14.86-6.2,14.85,6.2c2.98,1.27,6.57-.14,7.85-3.23,1.28-3.06-.17-6.57-3.23-7.85Zm-20.77-16.81l-8.23-7.26c-1.36-1.18-.53-3.39,1.28-3.38h16.45c1.8-.01,2.64,2.19,1.28,3.38l-8.23,7.26c-.73.64-1.83.64-2.56,0Z"/><path d="m168.81,92.33c-1.17-.85-2.33-1.7-3.48-2.55-10.17-7.53-20.94-15.36-36.01-15.15h-9.57c-3.31,0-6,2.69-6,6s2.69,6,6,6h9.64c11.23-.12,19.41,5.86,28.82,12.8,1.17.87,2.36,1.74,3.56,2.61,2.66,1.93,6.42,1.36,8.38-1.34,1.94-2.68,1.34-6.44-1.34-8.38Z"/><path d="m240.63,74.63h-9.5c-15.31-.17-25.86,7.61-36.08,15.14-1.15.85-2.31,1.7-3.48,2.55-2.68,1.94-3.28,5.69-1.34,8.38,1.95,2.7,5.72,3.27,8.38,1.34,1.2-.87,2.39-1.75,3.57-2.61,9.4-6.94,17.58-12.94,28.88-12.8h9.57c3.31,0,6-2.69,6-6s-2.69-6-6-6Z"/></g></svg>