<svg xmlns="http://www.w3.org/2000/svg" version="1.1" viewBox="-5.0 -10.0 110.0 135.0">
 <path d="m34.723 35.629c-0.64844 0-1.1719-0.52344-1.1719-1.1719 0-1.125-0.91797-2.043-2.0469-2.043s-2.043 0.91797-2.043 2.043c0 0.64844-0.52344 1.1719-1.1719 1.1719-0.64844 0-1.1719-0.52344-1.1719-1.1719 0-2.4219 1.9688-4.3867 4.3867-4.3867 2.4219 0 4.3867 1.9688 4.3867 4.3867 0 0.64844-0.52344 1.1719-1.1719 1.1719z" fill-rule="evenodd"/>
 <path d="m19.332 35.629c-0.64844 0-1.1719-0.52344-1.1719-1.1719 0-1.125-0.91797-2.043-2.0469-2.043-1.1289 0-2.043 0.91797-2.043 2.043 0 0.64844-0.52344 1.1719-1.1719 1.1719-0.64844 0-1.1719-0.52344-1.1719-1.1719 0-2.4219 1.9688-4.3867 4.3867-4.3867 2.4219 0 4.3867 1.9688 4.3867 4.3867 0 0.64844-0.52344 1.1719-1.1719 1.1719z" fill-rule="evenodd"/>
 <path d="m29.184 50.145c-0.64844 0-1.1719-0.52344-1.1719-1.1719 0-2.3164-1.8828-4.1992-4.1992-4.1992s-4.1992 1.8828-4.1992 4.1992c0 0.64844-0.52344 1.1719-1.1719 1.1719-0.64844 0-1.1719-0.52344-1.1719-1.1719 0-3.6055 2.9336-6.543 6.543-6.543 3.6055 0 6.543 2.9336 6.543 6.543 0 0.64844-0.52344 1.1719-1.1719 1.1719z" fill-rule="evenodd"/>
 <path d="m8.8867 28.449c-0.64844 0-1.1719-0.52344-1.1719-1.1719 0-2.0547 0.64844-3.6914 1.9297-4.8672 3.125-2.8594 9.3398-2.3086 15.348-1.7773 3.1641 0.28125 6.1445 0.54297 8.5 0.31641 0.65234-0.066407 1.2188 0.41016 1.2812 1.0508 0.0625 0.64453-0.40625 1.2188-1.0508 1.2812-2.5703 0.25-5.6602-0.023438-8.9336-0.3125-5.2461-0.46484-11.195-0.99219-13.559 1.1719-0.78516 0.71875-1.1719 1.7461-1.1719 3.1367 0 0.64844-0.52344 1.1719-1.1719 1.1719z" fill-rule="evenodd"/>
 <path d="m28.887 57.129h-6.5781c-8.0469 0-14.598-6.5508-14.598-14.598v-15.254c0-0.64844 0.52344-1.1719 1.1719-1.1719 0.64844 0 1.1719 0.52344 1.1719 1.1719v15.254c0 6.7578 5.4961 12.254 12.254 12.254h6.5781c0.64844 0 1.1719 0.52734 1.1719 1.1719s-0.52344 1.1719-1.1719 1.1719z" fill-rule="evenodd"/>
 <path d="m5.8438 31.871c-0.51172 0-0.98438-0.33984-1.1289-0.85938l-0.99219-3.5742-1.4727 1.4727c-0.32422 0.32422-0.80469 0.42578-1.2344 0.26953-0.42969-0.16016-0.72656-0.55078-0.76172-1.0078-0.52344-6.6719 1.3867-12.457 5.5195-16.73 4.9531-5.1211 12.75-7.8438 21.422-7.457 0.64453 0.027344 1.1484 0.57422 1.1172 1.2227-0.027344 0.64453-0.57422 1.1523-1.2227 1.1172-7.8672-0.35156-15.211 2.1719-19.633 6.7461-3.1484 3.2578-4.8047 7.3711-4.9375 12.258l0.96875-0.96484c0.29297-0.29688 0.72266-0.41016 1.125-0.30469 0.40234 0.10547 0.71875 0.41797 0.83203 0.82031l1.5273 5.5117c0.17188 0.625-0.19141 1.2695-0.81641 1.4414-0.10547 0.03125-0.21094 0.042969-0.31641 0.042969z" fill-rule="evenodd"/>
 <path d="m17.152 73.996c-0.14062 0-0.28125-0.015625-0.42188-0.050782-0.50391-0.12109-0.91406-0.43359-1.1602-0.88672l-4.1875-7.707c-0.30859-0.56641-0.097656-1.2812 0.46875-1.5898 0.57031-0.30859 1.2812-0.097657 1.5898 0.46875l3.8984 7.1719 5.4414-3.707-4.8789-6.4844c-0.39062-0.51563-0.28516-1.25 0.23047-1.6406 0.51563-0.39062 1.25-0.28516 1.6406 0.23047l5.207 6.918c0.30469 0.40234 0.42969 0.87109 0.35938 1.3555-0.070313 0.50781-0.34375 0.94531-0.76953 1.2344l-6.4141 4.3711c-0.30469 0.20703-0.65234 0.3125-1.0078 0.3125z" fill-rule="evenodd"/>
 <path d="m34.18 73.996c-0.35547 0-0.69922-0.10547-1.0039-0.3125l-6.418-4.375c-0.42187-0.28516-0.69531-0.72656-0.76562-1.2344-0.066407-0.48047 0.058593-0.94922 0.36328-1.3516l5.207-6.918c0.39062-0.51953 1.125-0.62109 1.6406-0.23047 0.51953 0.39062 0.62109 1.125 0.23047 1.6406l-4.8789 6.4844 5.4414 3.707 3.8984-7.1719c0.30859-0.56641 1.0195-0.77734 1.5898-0.46875s0.78125 1.0195 0.46875 1.5898l-4.1875 7.707c-0.25 0.45312-0.66016 0.76953-1.1602 0.88672-0.14062 0.03125-0.28516 0.050781-0.42188 0.050781z" fill-rule="evenodd"/>
 <path d="m26.328 75.477h-1.3242c-1.1055 0-2.2969-1.0195-4.7266-4.0352l-0.22266-0.27734c-0.40234-0.50781-0.31641-1.2422 0.1875-1.6445 0.50781-0.40234 1.2422-0.32031 1.6445 0.1875l0.21094 0.26562c1.9922 2.4766 2.7422 3.0391 3 3.1641h1.125c0.25781-0.12109 1.0078-0.6875 3.0039-3.1641l0.25391-0.31641c0.40234-0.50781 1.1367-0.59375 1.6445-0.19141s0.59375 1.1367 0.19141 1.6445l-0.26172 0.33203c-2.4297 3.0234-3.625 4.043-4.7305 4.043zm0.82031-6.3906h-2.9648c-0.64844 0-1.1719-0.52734-1.1719-1.1719 0-0.64453 0.52344-1.1719 1.1719-1.1719h2.9648c0.64844 0 1.1719 0.52734 1.1719 1.1719 0 0.64453-0.52344 1.1719-1.1719 1.1719z" fill-rule="evenodd"/>
 <path d="m25.668 96.055c-0.25391 0-0.51172-0.082032-0.72266-0.25l-4.8594-3.8125c-0.32813-0.25781-0.49609-0.67578-0.4375-1.0898l2.5664-17.859c0.09375-0.64062 0.68359-1.082 1.3281-0.99219 0.64062 0.09375 1.0859 0.6875 0.99219 1.3281l-2.4727 17.188 3.6016 2.8281 3.6016-2.8281-2.4727-17.188c-0.09375-0.64062 0.35156-1.2344 0.99219-1.3281s1.2344 0.35156 1.3281 0.99219l2.5664 17.859c0.058593 0.41406-0.10547 0.82812-0.4375 1.0898l-4.8594 3.8125c-0.21094 0.16797-0.46875 0.25-0.72266 0.25z" fill-rule="evenodd"/>
 <path d="m86.965 35.629c-0.64844 0-1.1719-0.52344-1.1719-1.1719 0-1.125-0.91797-2.043-2.043-2.043s-2.043 0.91797-2.043 2.043c0 0.64844-0.52734 1.1719-1.1719 1.1719-0.64453 0-1.1719-0.52344-1.1719-1.1719 0-2.4219 1.9688-4.3867 4.3867-4.3867 2.4219 0 4.3906 1.9688 4.3906 4.3867 0 0.64844-0.52734 1.1719-1.1719 1.1719z" fill-rule="evenodd"/>
 <path d="m71.574 35.629c-0.64844 0-1.1719-0.52344-1.1719-1.1719 0-1.125-0.91797-2.043-2.043-2.043s-2.043 0.91797-2.043 2.043c0 0.64844-0.52734 1.1719-1.1719 1.1719s-1.1719-0.52344-1.1719-1.1719c0-2.4219 1.9688-4.3867 4.3867-4.3867 2.4219 0 4.3867 1.9688 4.3867 4.3867 0 0.64844-0.52734 1.1719-1.1719 1.1719z" fill-rule="evenodd"/>
 <path d="m81.422 50.145c-0.64844 0-1.1719-0.52344-1.1719-1.1719 0-2.3164-1.8828-4.1992-4.1992-4.1992-2.3164 0-4.1992 1.8828-4.1992 4.1992 0 0.64844-0.52734 1.1719-1.1719 1.1719-0.64453 0-1.1719-0.52344-1.1719-1.1719 0-3.6055 2.9336-6.543 6.543-6.543s6.543 2.9336 6.543 6.543c0 0.64844-0.52734 1.1719-1.1719 1.1719z" fill-rule="evenodd"/>
 <path d="m90.977 28.449c-0.64844 0-1.1719-0.52344-1.1719-1.1719 0-2.4648-1.5742-4.6562-3.918-5.4531-0.61328-0.21094-0.94141-0.875-0.73047-1.4883 0.21094-0.61328 0.87891-0.9375 1.4883-0.73047 3.293 1.1211 5.5078 4.207 5.5078 7.6719 0 0.64844-0.52734 1.1719-1.1719 1.1719z" fill-rule="evenodd"/>
 <path d="m58.238 25.527c-0.19922 0-0.39844-0.050782-0.58203-0.15625-0.5625-0.32031-0.75781-1.0391-0.43359-1.5977 2.5-4.3711 9.5859-3.7422 16.438-3.1367 4.9102 0.43359 9.9883 0.88281 11.816-0.78516 1.6523-1.5078 2.332-2.8789 2.3359-2.8906 0.28125-0.57813 0.98438-0.82422 1.5625-0.54688 0.58203 0.28125 0.82812 0.97266 0.55078 1.5586-0.035156 0.070313-0.85547 1.7734-2.8711 3.6133-2.5938 2.3633-7.9414 1.8867-13.602 1.3867-5.832-0.51562-12.441-1.1016-14.195 1.9648-0.21484 0.37891-0.61328 0.58984-1.0156 0.58984z" fill-rule="evenodd"/>
 <path d="m77.551 57.129h-6.5781c-0.64844 0-1.1719-0.52734-1.1719-1.1719s0.52734-1.1719 1.1719-1.1719h6.5781c6.7578 0 12.254-5.4961 12.254-12.254v-15.254c0-0.64844 0.52734-1.1719 1.1719-1.1719 0.64453 0 1.1719 0.52344 1.1719 1.1719v15.254c0 8.0469-6.5469 14.598-14.598 14.598z" fill-rule="evenodd"/>
 <path d="m90.977 42.121c-0.64844 0-1.1719-0.52344-1.1719-1.1719v-10.258c0-0.64844 0.52734-1.1719 1.1719-1.1719 3.6523 0 6.6211 2.8281 6.6211 6.3008 0 3.4727-2.9688 6.3008-6.6211 6.3008zm1.1719-10.109v7.6133c1.7891-0.47266 3.1055-2 3.1055-3.8086 0-1.8047-1.3164-3.3359-3.1055-3.8086z" fill-rule="evenodd"/>
 <path d="m93.477 32.555c-0.12109 0-0.24219-0.019532-0.36328-0.058594-0.61719-0.20312-0.94922-0.86328-0.75-1.4766l2.0195-6.168c0.12891-0.39062 0.44922-0.68359 0.85156-0.77734 0.39844-0.09375 0.82031 0.03125 1.1055 0.32812l1.0078 1.043c-0.32422-1.9766-1.2969-4.0508-3.9531-4.2422-0.53125-0.039063-0.96875-0.42969-1.0664-0.95312s0.16797-1.0469 0.64844-1.2734l3.7031-1.7695c-3.668-6.3164-11.617-10.465-20.914-10.879-0.64844-0.027344-1.1484-0.57422-1.1172-1.2227 0.027343-0.64453 0.58984-1.1445 1.2227-1.1172 10.363 0.46094 19.238 5.2969 23.16 12.617l0.097656 0.17969c0.18359 0.33203 0.42969 0.78125 0.22656 1.3477-0.19922 0.5625-0.67188 0.75391-0.95312 0.86719-0.089844 0.035156-0.20312 0.082031-0.34766 0.15234l-1.4414 0.6875c2.1055 1.3555 3.2695 4.043 3.2227 7.6836l-0.003907 0.30859c-0.003906 0.57422-0.007812 1.3555-0.81641 1.6602-0.79688 0.30078-1.3281-0.28906-1.5859-0.57422-0.082032-0.089844-0.17969-0.20312-0.30469-0.33203l-1.1172-1.1562-1.4141 4.3203c-0.16016 0.49609-0.62109 0.80859-1.1133 0.80859z" fill-rule="evenodd"/>
 <path d="m65.82 73.996c-0.14062 0-0.28125-0.015625-0.42187-0.050782-0.5-0.11719-0.91016-0.43359-1.1602-0.88672l-4.1875-7.7109c-0.30859-0.56641-0.097656-1.2812 0.46875-1.5898 0.57031-0.30859 1.2773-0.097656 1.5898 0.46875l3.8984 7.1719 5.4414-3.707-4.8789-6.4844c-0.39062-0.51562-0.28516-1.25 0.23047-1.6406 0.51953-0.39062 1.25-0.28516 1.6406 0.23047l5.207 6.918c0.30078 0.40234 0.42969 0.86719 0.36328 1.3477-0.074219 0.51562-0.34766 0.95312-0.76953 1.2383l-6.4141 4.3711c-0.30078 0.21094-0.64844 0.31641-1.0039 0.31641z" fill-rule="evenodd"/>
 <path d="m82.844 73.996c-0.35547 0-0.70312-0.10547-1.0039-0.3125l-6.418-4.3711c-0.42188-0.28516-0.69531-0.72656-0.76562-1.2344-0.066406-0.48438 0.058594-0.95312 0.36328-1.3555l5.2031-6.918c0.39062-0.51953 1.125-0.62109 1.6406-0.23047s0.62109 1.125 0.23047 1.6406l-4.8789 6.4844 5.4414 3.707 3.8984-7.1719c0.30859-0.57031 1.0195-0.77734 1.5898-0.46875 0.57031 0.30859 0.77734 1.0195 0.46875 1.5898l-4.1875 7.707c-0.24609 0.45312-0.65625 0.76953-1.1602 0.88672-0.14062 0.03125-0.28516 0.046875-0.42578 0.046875z" fill-rule="evenodd"/>
 <path d="m74.996 75.477h-1.3242c-1.1055 0-2.2969-1.0195-4.7266-4.0352l-0.22266-0.28125c-0.40234-0.50781-0.31641-1.2422 0.19141-1.6445 0.50781-0.40234 1.2422-0.31641 1.6445 0.19141l0.21094 0.26172c1.9922 2.4766 2.7461 3.0391 3 3.1641h1.125c0.25781-0.125 1.0078-0.6875 3.0039-3.1641l0.24609-0.30859 1.8477 1.4453-0.26563 0.33203c-2.4297 3.0195-3.6211 4.0391-4.7266 4.0391zm0.82031-6.3906h-2.9648c-0.64844 0-1.1719-0.52734-1.1719-1.1719 0-0.64453 0.52734-1.1719 1.1719-1.1719h2.9648c0.64844 0 1.1719 0.52734 1.1719 1.1719 0 0.64453-0.52344 1.1719-1.1719 1.1719z" fill-rule="evenodd"/>
 <path d="m74.332 96.055c-0.25391 0-0.51172-0.082032-0.72266-0.25l-4.8594-3.8125c-0.32812-0.25781-0.49609-0.67578-0.4375-1.0898l2.5664-17.859c0.09375-0.64062 0.69141-1.082 1.3281-0.99219 0.64062 0.09375 1.0859 0.6875 0.99219 1.3281l-2.4727 17.188 3.6016 2.8281 3.6016-2.8281-2.4727-17.188c-0.089843-0.64062 0.35156-1.2344 0.99219-1.3281 0.63672-0.089843 1.2344 0.35156 1.3281 0.99219l2.5664 17.859c0.058594 0.41406-0.10547 0.82812-0.4375 1.0898l-4.8594 3.8125c-0.21094 0.16797-0.46875 0.25-0.72266 0.25z" fill-rule="evenodd"/>
 <path d="m98.816 96.055h-48.965c-0.64844 0-1.1719-0.52734-1.1719-1.1719 0-16.293 7.5547-30.871 18.371-35.453 0.60156-0.25391 1.2852 0.027343 1.5352 0.62109 0.25391 0.59766-0.027344 1.2852-0.62109 1.5352-9.7227 4.1172-16.586 17.223-16.93 32.121h46.598c-0.34375-14.898-7.207-28.004-16.93-32.121-0.59375-0.25391-0.875-0.94141-0.62109-1.5352 0.25391-0.59375 0.9375-0.875 1.5352-0.62109 10.816 4.582 18.371 19.16 18.371 35.453 0 0.64453-0.52344 1.1719-1.1719 1.1719z" fill-rule="evenodd"/>
 <path d="m81.16 61.68c-0.64844 0-1.1719-0.52734-1.1719-1.1719v-5.0469c0-0.64844 0.52734-1.1719 1.1719-1.1719 0.64453 0 1.1719 0.52734 1.1719 1.1719v5.0469c0 0.64844-0.52344 1.1719-1.1719 1.1719zm-13.652 0c-0.64844 0-1.1719-0.52734-1.1719-1.1719v-4.5508c0-0.64844 0.52734-1.1719 1.1719-1.1719 0.64453 0 1.1719 0.52734 1.1719 1.1719v4.5508c0 0.64844-0.52344 1.1719-1.1719 1.1719z" fill-rule="evenodd"/>
 <path d="m58.281 96.055c-0.64844 0-1.1719-0.52734-1.1719-1.1719v-8.3594c0-0.64844 0.52734-1.1719 1.1719-1.1719s1.1719 0.52734 1.1719 1.1719v8.3594c0 0.64453-0.52344 1.1719-1.1719 1.1719z" fill-rule="evenodd"/>
 <path d="m90.383 96.055c-0.64844 0-1.1719-0.52734-1.1719-1.1719v-8.3594c0-0.64844 0.52734-1.1719 1.1719-1.1719 0.64453 0 1.1719 0.52734 1.1719 1.1719v8.3594c0 0.64453-0.52344 1.1719-1.1719 1.1719z" fill-rule="evenodd"/>
 <path d="m50.152 96.055h-48.965c-0.64844 0-1.1719-0.52734-1.1719-1.1719 0-16.293 7.5547-30.871 18.371-35.453 0.59375-0.25 1.2852 0.027343 1.5352 0.62109 0.25391 0.59766-0.027344 1.2852-0.62109 1.5352-9.7227 4.1172-16.586 17.223-16.926 32.121h46.598c-0.34375-14.898-7.207-28.004-16.93-32.121-0.59766-0.25391-0.875-0.94141-0.62109-1.5352 0.25391-0.59766 0.94141-0.875 1.5352-0.62109 10.816 4.582 18.371 19.16 18.371 35.453 0 0.64453-0.52344 1.1719-1.1719 1.1719z" fill-rule="evenodd"/>
 <path d="m32.492 61.68c-0.64844 0-1.1719-0.52734-1.1719-1.1719v-4.5508c0-0.64844 0.52344-1.1719 1.1719-1.1719 0.64844 0 1.1719 0.52734 1.1719 1.1719v4.5508c0 0.64844-0.52344 1.1719-1.1719 1.1719zm-13.652 0c-0.64844 0-1.1719-0.52734-1.1719-1.1719v-5.0117c0-0.64844 0.52344-1.1719 1.1719-1.1719 0.64844 0 1.1719 0.52734 1.1719 1.1719v5.0117c0 0.64844-0.52344 1.1719-1.1719 1.1719z" fill-rule="evenodd"/>
 <path d="m41.719 96.055c-0.64844 0-1.1719-0.52734-1.1719-1.1719v-8.3594c0-0.64844 0.52344-1.1719 1.1719-1.1719s1.1719 0.52734 1.1719 1.1719v8.3594c0 0.64453-0.52344 1.1719-1.1719 1.1719z" fill-rule="evenodd"/>
 <path d="m57.336 12.293h-9.4648c-2.4727 0-4.4844-2.0117-4.4844-4.4844 0-1.4336 0.69922-2.793 1.8672-3.6367 0.52344-0.37891 1.2578-0.25781 1.6367 0.26562s0.25781 1.2578-0.26562 1.6367c-0.5625 0.40625-0.89844 1.0547-0.89844 1.7383 0 1.1797 0.96094 2.1406 2.1406 2.1406h9.4648c0.64844 0 1.1719 0.52344 1.1719 1.1719s-0.52344 1.1719-1.1719 1.1719z" fill-rule="evenodd"/>
 <path d="m57.926 18.918h-9.4648c-0.64844 0-1.1719-0.52344-1.1719-1.1719 0-0.64844 0.52344-1.1719 1.1719-1.1719h9.4648c1.1797 0 2.1406-0.96094 2.1406-2.1406 0-1.1797-0.96094-2.1406-2.1406-2.1406h-9.4648c-0.64844 0-1.1719-0.52344-1.1719-1.1719 0-0.64844 0.52344-1.1719 1.1719-1.1719h9.4648c2.4727 0 4.4844 2.0117 4.4844 4.4844s-2.0117 4.4844-4.4844 4.4844z" fill-rule="evenodd"/>
 <path d="m51.016 25.543h-14.305c-2.4727 0-4.4844-2.0117-4.4844-4.4844s2.0117-4.4844 4.4844-4.4844h14.305c0.64844 0 1.1719 0.52344 1.1719 1.1719 0 0.64844-0.52734 1.1719-1.1719 1.1719h-14.305c-1.1797 0-2.1406 0.96094-2.1406 2.1406 0 1.1797 0.96094 2.1406 2.1406 2.1406h14.305c0.64844 0 1.1719 0.52344 1.1719 1.1719 0 0.64844-0.52344 1.1719-1.1719 1.1719z" fill-rule="evenodd"/>
 <path d="m60.699 32.168h-12.531c-0.64844 0-1.1719-0.52344-1.1719-1.1719 0-0.64844 0.52344-1.1719 1.1719-1.1719h12.531c1.1797 0 2.1406-0.96094 2.1406-2.1406 0-1.1797-0.96094-2.1406-2.1406-2.1406h-17.914c-0.64844 0-1.1719-0.52344-1.1719-1.1719 0-0.64844 0.52344-1.1719 1.1719-1.1719h17.918c2.4727 0 4.4844 2.0117 4.4844 4.4844s-2.0117 4.4844-4.4844 4.4844z" fill-rule="evenodd"/>
 <path d="m55 57.008c-0.19922 0-0.40234-0.050781-0.58594-0.15625-0.55859-0.32422-0.75-1.0391-0.42578-1.6016 0.1875-0.32422 0.28516-0.69141 0.28516-1.0664 0-1.1797-0.96094-2.1406-2.1406-2.1406h-9.4648c-0.64844 0-1.1719-0.52734-1.1719-1.1719 0-0.64844 0.52344-1.1719 1.1719-1.1719h9.4648c2.4727 0 4.4844 2.0117 4.4844 4.4844 0 0.78516-0.20703 1.5586-0.60156 2.2383-0.21875 0.375-0.60938 0.58594-1.0156 0.58594z" fill-rule="evenodd"/>
 <path d="m51.539 52.043h-13.039c-2.4727 0-4.4844-2.0117-4.4844-4.4844s2.0117-4.4844 4.4844-4.4844h13.039c0.64844 0 1.1719 0.52344 1.1719 1.1719 0 0.64844-0.52734 1.1719-1.1719 1.1719h-13.039c-1.1797 0-2.1406 0.96094-2.1406 2.1406 0 1.1797 0.96094 2.1406 2.1406 2.1406h13.039c0.64844 0 1.1719 0.52344 1.1719 1.1719 0 0.64844-0.52344 1.1719-1.1719 1.1719z" fill-rule="evenodd"/>
 <path d="m59.715 45.418h-10.73c-0.64844 0-1.1719-0.52344-1.1719-1.1719 0-0.64844 0.52344-1.1719 1.1719-1.1719h10.73c1.1797 0 2.1406-0.96094 2.1406-2.1406 0-1.1797-0.96094-2.1406-2.1406-2.1406h-10.73c-0.64844 0-1.1719-0.52344-1.1719-1.1719 0-0.64844 0.52344-1.1719 1.1719-1.1719h10.73c2.4727 0 4.4844 2.0117 4.4844 4.4844s-2.0117 4.4844-4.4844 4.4844z" fill-rule="evenodd"/>
 <path d="m57.215 38.793h-16.129c-2.4727 0-4.4844-2.0117-4.4844-4.4844s2.0117-4.4844 4.4844-4.4844h10.066c0.64844 0 1.1719 0.52344 1.1719 1.1719 0 0.64844-0.52734 1.1719-1.1719 1.1719h-10.066c-1.1797 0-2.1406 0.96094-2.1406 2.1406 0 1.1797 0.96094 2.1406 2.1406 2.1406h16.129c0.64844 0 1.1719 0.52344 1.1719 1.1719 0 0.64844-0.52344 1.1719-1.1719 1.1719z" fill-rule="evenodd"/>
 <path d="m74.266 57.129h-48.664c-0.64844 0-1.1719-0.52734-1.1719-1.1719s0.52344-1.1719 1.1719-1.1719h48.664c0.64844 0 1.1719 0.52734 1.1719 1.1719s-0.52344 1.1719-1.1719 1.1719z" fill-rule="evenodd"/>
 <path d="m75.812 6.293h-50.168c-0.64844 0-1.1719-0.52344-1.1719-1.1719 0-0.64844 0.52344-1.1719 1.1719-1.1719h50.168c0.64844 0 1.1719 0.52344 1.1719 1.1719 0 0.64844-0.52344 1.1719-1.1719 1.1719z" fill-rule="evenodd"/>
 <path d="m8.8867 42.121c-3.6523 0-6.6211-2.8281-6.6211-6.3008 0-3.4766 2.9688-6.3008 6.6211-6.3008 0.64844 0 1.1719 0.52344 1.1719 1.1719v10.262c0 0.64844-0.52344 1.1719-1.1719 1.1719zm-1.1719-10.109c-1.7891 0.47266-3.1055 2-3.1055 3.8086 0 1.8086 1.3164 3.3359 3.1055 3.8086z" fill-rule="evenodd"/>
 <path d="m9.6133 96.055c-0.64844 0-1.1719-0.52734-1.1719-1.1719v-8.3594c0-0.64844 0.52344-1.1719 1.1719-1.1719 0.64844 0 1.1719 0.52734 1.1719 1.1719v8.3594c0 0.64453-0.52344 1.1719-1.1719 1.1719z" fill-rule="evenodd"/>
</svg>