<svg xmlns="http://www.w3.org/2000/svg" version="1.1" viewBox="-5.0 -10.0 110.0 135.0">
 <path d="m51 76.898c-3.5-3.6992-8.6992-7.6992-14.699-11.301-5.8984-3.6016-11.898-6.3984-16.801-7.8008-5.6016-1.6016-9.1016-1.3984-10.398 0.80078v0.10156 0.10156l-4.3984 7.1992c-1.8984 3.1016 0.19922 7.3008 6.5 13 4.6016 4.1992 10.102 7.8984 11.699 8.8008 5.8984 3.6016 12 6.3008 17 7.6016 2.1016 0.5 3.8984 0.80078 5.3984 0.80078 2.6016 0 4.3984-0.80078 5.3008-2.3008l4.3984-7.1992 0.10156-0.10156v-0.10156c1.1992-2.1992-0.10156-5.3984-4.1016-9.6016zm-37.5-17.398c1.1992 0 2.8984 0.19922 5.3008 1 4.6992 1.3984 10.398 4.1016 16.102 7.5 5.6992 3.5 10.699 7.3008 14.102 10.801 3.6992 3.8008 4 5.8008 3.6992 6.3008s-2.3008 1.1016-7.3008-0.39844c-4.6992-1.3984-10.398-4.1016-16.102-7.5-5.6992-3.5-10.699-7.3008-14.102-10.898-3.6992-3.8008-4-5.8008-3.6992-6.3008 0.10156-0.30469 0.69922-0.50391 2-0.50391zm16.898 29.301 3.6992-5.8984c1.5 0.80078 3 1.5 4.3984 2.1016l-3.6016 5.8008c-1.4961-0.50391-2.9961-1.2031-4.4961-2.0039zm-12.797-8 3.6016-5.8008c1.3008 0.89844 2.6016 1.8984 4 2.8008l-3.6016 5.8984c-1.2031-0.80078-2.6016-1.8008-4-2.8984zm-10.602-13.5 2.5-4.1016c0.69922 1.5 2 3.1016 3.8008 5l0.10156 0.10156-3.5 5.6016c-2.6016-3.0039-3.7031-5.3008-2.9023-6.6016zm4.8008 8.5977 3.5-5.6016c1.1016 1 2.3984 2.1016 3.6992 3.1992l-3.6016 5.6992c-0.80078-0.69922-1.6992-1.3984-2.5-2.1992-0.29688-0.39453-0.69922-0.79688-1.0977-1.0977zm12 9.3008 3.6992-6c0.19922 0.10156 0.30078 0.19922 0.5 0.30078 1.3008 0.80078 2.5 1.5 3.8008 2.1992l-3.8008 5.9023c-1.1992-0.69922-2.5-1.3984-3.6992-2.1016-0.19922-0.10156-0.30078-0.19922-0.5-0.30078zm24.5 7.3008c-0.5 0.89844-2.8984 1.5-7.8008 0.30078-1-0.30078-2-0.60156-3.1016-0.89844l3.6016-5.9023c1.3008 0.5 2.5 0.89844 3.6992 1.3008 2.3984 0.69922 4.3984 1.1016 6 1.1016h0.10156zm49.898-47.602-4.3984-7.1992v-0.10156-0.10156c-1.3008-2.1992-4.8008-2.3984-10.398-0.80078-4.8984 1.3984-10.801 4.1992-16.801 7.8008-5.8984 3.6016-11.102 7.6016-14.699 11.301-4 4.1992-5.3984 7.3984-4.1016 9.6016l4.3984 7.3008c0.89844 1.5 2.6992 2.3008 5.3008 2.3008 1.5 0 3.3008-0.30078 5.3984-0.80078 5-1.3008 11-4 17-7.6016 0.19922-0.10156 16.801-10.5 18.602-18.102 0.5-1.1953 0.30078-2.4961-0.30078-3.5977zm-44.398 12.902c3.3984-3.5 8.3984-7.3984 14.102-10.898 5.6992-3.5 11.5-6.1992 16.102-7.5 2.3984-0.69922 4.1016-1 5.3008-1 1.3008 0 1.8984 0.30078 2.1016 0.60156 0.30078 0.5-0.10156 2.5-3.6992 6.3008-3.3984 3.5-8.3984 7.3984-14.102 10.801-5.6992 3.5-11.5 6.1992-16.102 7.5-5.1016 1.5-7 0.89844-7.3008 0.39844-0.40234-0.40234-0.003906-2.4023 3.5977-6.2031zm33.598 0.30078-3.6016-5.6992c1.3008-1.1016 2.6016-2.1016 3.6992-3.1992l3.5 5.6016c-1.0977 1.1953-2.2969 2.2969-3.5977 3.2969zm-6.0977 4.5977-3.6992-5.8984c1.3984-0.89844 2.6992-1.8008 4-2.8008l3.6016 5.8008c-1.3047 1.0977-2.7031 2.0977-3.9023 2.8984zm-13.199 7.1016-3.7031-5.8008c1.3984-0.60156 2.8984-1.3008 4.3984-2.1016l3.6992 5.8984c-1.4961 0.80469-2.9961 1.4023-4.3945 2.0039zm-5.7031 1.8984c-4.8984 1.1992-7.3008 0.60156-7.8008-0.30078l-2.5-4.1016h0.10156c1.6016 0 3.6016-0.39844 6-1.1016 1.1992-0.30078 2.3984-0.80078 3.6992-1.3008l3.6016 5.6992c-1.1016 0.60547-2.1016 0.90625-3.1016 1.1055zm12.5-5.0977-3.6992-5.8984c1.1992-0.69922 2.5-1.3984 3.8008-2.1992 0.19922-0.10156 0.30078-0.19922 0.5-0.30078l3.6992 6c-0.19922 0.10156-0.30078 0.19922-0.5 0.30078-1.3008 0.69531-2.5977 1.3945-3.8008 2.0977zm21.102-18.602c-0.30078 1.3984-1.5 3.1016-3 4.8008l-3.5-5.6016 0.10156-0.10156c1.8008-1.8008 3-3.5 3.8008-5l2.5 4.1016c0.19922 0.60156 0.29688 1.1016 0.097656 1.8008zm-62.102 12.602 8.3984 0.19922h0.10156c2.5 0 4.6016-2.8008 6.1992-8.3008 1.3984-4.8984 2.3008-11.398 2.3984-18.301 0.19922-6.8984-0.39844-13.5-1.6016-18.398-1.3984-5.6992-3.3008-8.5-5.8984-8.6016h-0.10156-0.10156l-8.3984-0.19922h-0.10156c-3.6016 0-6.1992 4-7.8984 12.102-1.3008 6.1016-1.8008 12.699-1.8008 14.5-0.19922 6.8984 0.5 13.5 1.8984 18.5 1.8086 5.5 4.1094 8.5 6.9062 8.5zm-4.1992-41c0.10156-0.5 0.19922-1.1016 0.39844-1.6016l6.6016 0.19922c-0.30078 1.5-0.60156 3.1016-0.89844 4.8008l-6.8008-0.19922c0.30078-1 0.5-2.1016 0.69922-3.1992zm5.3008 14.199v4.3008l-7-0.19922v-4.3008-0.60156l7 0.19922v0.60156zm-6.8984 6.8008 7 0.19922c0.10156 1.6992 0.19922 3.3008 0.39844 4.8984l-6.8984-0.19922c-0.20312-1.6016-0.30078-3.1992-0.5-4.8984zm7.3984-14.902c-0.19922 1.6016-0.30078 3.1992-0.39844 4.8008l-6.8984-0.19922c0.10156-1.3984 0.30078-3 0.5-4.8008zm-5.6992 25.602c-0.30078-1-0.5-2.1016-0.80078-3.1992l6.8008 0.19922c0.19922 1.3984 0.5 2.6016 0.80078 3.8008 0.60156 2.5 1.3008 4.3984 2.1016 5.8008l-4.7031-0.003906c-1.1016 0-2.8008-1.6992-4.1992-6.5977zm17.199-34.902c1.1016 4.6992 1.6992 11 1.5 17.699-0.19922 6.6992-1 13-2.3008 17.699-1.5 5.1016-3 6.3984-3.6016 6.3984-0.60156 0-2.1016-1.3984-3.3008-6.6016-1.1016-4.6992-1.6992-11-1.5-17.699s1-13 2.3008-17.602c1.5-5.1016 3-6.3984 3.6016-6.3984 0.60156-0.09375 2 1.3047 3.3008 6.5039zm-11.898-6.7969 4.8008 0.10156c-0.89844 1.3984-1.6992 3.3008-2.3984 5.6992v0.10156l-6.5-0.19922c1.0977-3.7031 2.5977-5.7031 4.0977-5.7031zm24.5 7.7969c4.6992 0.60156 7.1992 1.1016 8.5 2.5 1.3984 1.3984 1.8984 3.8008 2.5 8.5 0.10156 0.69922 0.69922 1.1992 1.3008 1.1992 0.69922 0 1.1992-0.5 1.3008-1.1992 0.60156-4.6992 1.1016-7.1992 2.5-8.5 1.3984-1.3984 3.8008-1.8984 8.5-2.5 0.69922-0.10156 1.1992-0.69922 1.1992-1.3008 0-0.69922-0.5-1.1992-1.1992-1.3008-4.6992-0.60156-7.1992-1.1016-8.5-2.5-1.3984-1.3984-1.8984-3.8008-2.5-8.5-0.10156-0.69922-0.69922-1.1992-1.3008-1.1992-0.69922 0-1.1992 0.5-1.3008 1.1992-0.60156 4.6992-1.1016 7.1992-2.5 8.5-1.3984 1.3984-3.8008 1.8984-8.5 2.5-0.69922 0.10156-1.1992 0.69922-1.1992 1.3008-0.003906 0.70312 0.49609 1.2031 1.1992 1.3008zm12.297-6.5c1 2.8008 2.3984 4.3008 5.3008 5.3008-2.8008 1-4.3008 2.3984-5.3008 5.3008-1-2.8008-2.3984-4.3008-5.3008-5.3008 2.9023-1 4.4023-2.5 5.3008-5.3008zm-63.297 40.801c0.10156 0.69922 0.69922 1.1992 1.3008 1.1992 0.69922 0 1.1992-0.5 1.3008-1.1992 0.30078-2.6992 0.69922-4.1992 1.3984-4.8984 0.69922-0.69922 2.1992-1 4.8984-1.3984 0.69922-0.10156 1.1992-0.69922 1.1992-1.3008 0-0.69922-0.5-1.1992-1.1992-1.3008-2.6992-0.30078-4.1992-0.69922-4.8984-1.3984-0.69922-0.69922-1-2.1992-1.3984-4.8984-0.10156-0.69922-0.69922-1.1992-1.3008-1.1992-0.69922 0-1.1992 0.5-1.3008 1.1992-0.30078 2.6992-0.69922 4.1992-1.3984 4.8984-0.69922 0.69922-2.1992 1-4.8984 1.3984-0.69922 0.10156-1.1992 0.69922-1.1992 1.3008 0 0.69922 0.5 1.1992 1.1992 1.3008 2.6992 0.30078 4.1992 0.69922 4.8984 1.3984 0.79688 0.69922 1.0977 2.1992 1.3984 4.8984zm0.59766-8.3984c0.30078-0.30078 0.60156-0.69922 0.80078-1.1016 0.19922 0.39844 0.5 0.80078 0.80078 1.1016s0.69922 0.60156 1.1016 0.80078c-0.39844 0.19922-0.80078 0.5-1.1016 0.80078-0.30078 0.30078-0.60156 0.69922-0.80078 1.1016-0.19922-0.39844-0.5-0.80078-0.80078-1.1016-0.30078-0.30078-0.69922-0.60156-1.1016-0.80078 0.40234-0.20312 0.70312-0.5 1.1016-0.80078zm78.199 40.801c-4.1016-0.5-6.1992-1-7.3984-2.1016-1.1992-1.1992-1.6016-3.3008-2.1016-7.3984-0.10156-0.69922-0.69922-1.1992-1.3008-1.1992-0.69922 0-1.1992 0.5-1.3008 1.1992-0.5 4.1016-1 6.1992-2.1016 7.3984-1.1992 1.1992-3.3008 1.6016-7.3984 2.1016-0.69922 0.10156-1.1992 0.69922-1.1992 1.3008 0 0.69922 0.5 1.1992 1.1992 1.3008 4.1016 0.5 6.1992 1 7.3984 2.1016 1.1992 1.1992 1.6016 3.3008 2.1016 7.3984 0.10156 0.69922 0.69922 1.1992 1.3008 1.1992 0.69922 0 1.1992-0.5 1.3008-1.1992 0.5-4.1016 1-6.1992 2.1016-7.3984 1.1992-1.1992 3.3008-1.6016 7.3984-2.1016 0.69922-0.10156 1.1992-0.69922 1.1992-1.3008-0.097656-0.70312-0.59766-1.3008-1.1992-1.3008zm-9.2969 2.8984c-0.69922 0.69922-1.1992 1.5-1.6016 2.5-0.39844-1-0.89844-1.8008-1.6016-2.5-0.69922-0.69922-1.5-1.1992-2.5-1.6016 1-0.39844 1.8008-0.89844 2.5-1.6016 0.69922-0.69922 1.1992-1.5 1.6016-2.5 0.39844 1 0.89844 1.8008 1.6016 2.5 0.69922 0.69922 1.5 1.1992 2.5 1.6016-1 0.40234-1.9023 0.90234-2.5 1.6016z"/>
</svg>