<svg xmlns="http://www.w3.org/2000/svg" version="1.1" viewBox="-5.0 -10.0 110.0 135.0">
 <path d="m94.523 68.496c-1.8438-0.82031-3.8906-0.875-5.7539-0.15625l-30.773 11.801-4.5938-0.57031 9.168-3.5195c1.7422-0.66016 3.1211-1.9688 3.8906-3.6797 0.76562-1.7109 0.82031-3.6094 0.15625-5.3438-1.2539-3.3008-4.8008-4.9492-8.8281-4.1094l-18.824 3.9766c-3.3867-1.7266-7.2695-2.3242-11.02-1.6562-2.3125 0.43359-4.457 1.3047-6.4062 2.5547h-1.7266c-0.375-1.6055-1.8086-2.8086-3.5234-2.8086h-11.652c-2 0-3.625 1.6289-3.625 3.625v26.758c0 2 1.6289 3.625 3.625 3.625h11.648c1.7148 0 3.1484-1.2031 3.5234-2.8047h39.281c2.0117 0 3.7734-0.35938 5.7227-1.1719l29.391-12.613c3.8711-1.6484 5.7617-5.918 4.3008-9.7109-0.71875-1.8789-2.1328-3.3711-3.9805-4.1953zm-77.609 26.871c0 0.33203-0.29297 0.625-0.625 0.625h-11.652c-0.33203 0-0.625-0.29297-0.625-0.625v-26.758c0-0.33203 0.29297-0.625 0.625-0.625h11.648c0.33203 0 0.625 0.29297 0.625 0.625zm76.109-15.723-29.379 12.609c-1.5508 0.64453-2.957 0.93359-4.5547 0.93359h-39.176v-22.398h2.043 0.003907c0.13281 0 0.26172-0.023437 0.38672-0.058593 0.03125-0.007813 0.0625-0.019531 0.09375-0.027344 0.12891-0.042969 0.25-0.097656 0.35938-0.17188 0 0 0.003907 0 0.003907-0.003906 1.7109-1.168 3.6289-1.957 5.6836-2.3438 3.2617-0.57812 6.6523-0.015625 9.5547 1.5938 0.035156 0.019531 0.070312 0.027344 0.10547 0.046875 0.03125 0.015625 0.066406 0.027343 0.10156 0.042969 0.058594 0.019531 0.11328 0.039062 0.17578 0.054687 0.035157 0.007813 0.074219 0.015625 0.10938 0.023437 0.058594 0.007813 0.11328 0.015626 0.17188 0.015626 0.042969 0.003906 0.085938 0.003906 0.12891 0 0.054687-0.003907 0.10547-0.007813 0.15625-0.015626 0.03125-0.003906 0.058593-0.003906 0.089843-0.007812l19.328-4.082c1.9453-0.40625 4.5273-0.066407 5.4062 2.2422 0.37891 0.98828 0.34766 2.0703-0.089844 3.0469-0.4375 0.97656-1.2266 1.7227-2.2227 2.1016l-14.77 5.668c-0.015625 0.007813-0.027344 0.015626-0.042969 0.023438-0.0625 0.027344-0.125 0.058594-0.1875 0.09375-0.027344 0.015625-0.054687 0.03125-0.078125 0.050781-0.054687 0.035157-0.10156 0.074219-0.14844 0.11719-0.027344 0.023437-0.050782 0.046875-0.074219 0.074219-0.039063 0.042968-0.078125 0.085937-0.11328 0.13672-0.023438 0.03125-0.046875 0.0625-0.066406 0.09375-0.03125 0.046875-0.054688 0.09375-0.082032 0.14453-0.019531 0.039062-0.039062 0.078124-0.054687 0.12109-0.019531 0.046875-0.03125 0.089844-0.046875 0.13672-0.015625 0.050781-0.027344 0.10547-0.035156 0.15625-0.003907 0.023438-0.011719 0.046875-0.015626 0.070312-0.003906 0.019532 0 0.039063-0.003906 0.0625-0.003906 0.054688-0.003906 0.10938-0.003906 0.16406 0 0.046875 0.003906 0.09375 0.007812 0.14062 0.007813 0.046875 0.015626 0.09375 0.023438 0.14062 0.011719 0.054687 0.023438 0.10547 0.042969 0.15625 0.007812 0.019531 0.007812 0.039063 0.015625 0.058594 0.007812 0.015625 0.015625 0.023437 0.023437 0.039062 0.054688 0.12891 0.11719 0.24609 0.20312 0.35547 0.007813 0.011719 0.019532 0.019531 0.023438 0.027344 0.078125 0.09375 0.17188 0.17578 0.27344 0.25 0.023438 0.015625 0.042969 0.03125 0.066407 0.046875 0.10937 0.070312 0.22656 0.12891 0.35547 0.17188 0.019532 0.007812 0.039063 0.007812 0.058594 0.015625 0.070312 0.019531 0.13672 0.039062 0.21094 0.046875l10.914 1.3594c0.24609 0.03125 0.49219 0 0.72266-0.089844l31.129-11.934c1.1211-0.43359 2.3516-0.39453 3.457 0.097657 1.1133 0.49609 1.9648 1.3945 2.3984 2.5273 0.875 2.2812-0.30078 4.8633-2.6836 5.875zm-46.07-59.992c0 1.2148 1.3906 2.2422 3.0352 2.2422 3.3828 0 6.0352 2.2891 6.0352 5.2148 0 2.4766-1.8984 4.4961-4.5352 5.0586v1.1523c0 0.82813-0.67188 1.5-1.5 1.5s-1.5-0.67187-1.5-1.5v-1.1562c-2.6055-0.57812-4.5352-2.6211-4.5352-5.0508 0-0.82812 0.67188-1.5 1.5-1.5s1.5 0.67188 1.5 1.5c0 1.1992 1.3906 2.2148 3.0352 2.2148 1.6758 0 3.0352-0.99219 3.0352-2.2148 0-1.2227-1.3594-2.2148-3.0352-2.2148-3.3281 0-6.0352-2.3516-6.0352-5.2422 0-2.4297 1.9297-4.4727 4.5352-5.0508v-1.1562c0-0.82812 0.67188-1.5 1.5-1.5s1.5 0.67188 1.5 1.5v1.1562c2.6055 0.57812 4.5352 2.6211 4.5352 5.0508 0 0.82812-0.67188 1.5-1.5 1.5-0.82813 0-1.5-0.67188-1.5-1.5 0-1.1992-1.3906-2.2148-3.0352-2.2148-1.6406 0-3.0352 1.0117-3.0352 2.2109zm3.0391-12.582c-9.0039 0-16.324 7.3242-16.324 16.324 0 8.9844 7.3242 16.297 16.324 16.297 9.0039 0 16.324-7.3125 16.324-16.297 0-9-7.3242-16.324-16.324-16.324zm0 29.621c-7.3477 0-13.324-5.9648-13.324-13.297 0-7.3477 5.9766-13.324 13.324-13.324 7.3477 0 13.324 5.9766 13.324 13.324 0 7.332-5.9766 13.297-13.324 13.297zm0-35.688c-12.348 0-22.391 10.047-22.391 22.391 0 12.332 10.047 22.363 22.391 22.363 12.348 0 22.391-10.031 22.391-22.363 0-12.344-10.043-22.391-22.391-22.391zm0 41.754c-10.691 0-19.391-8.6875-19.391-19.363 0-10.691 8.6992-19.391 19.391-19.391 10.691 0 19.391 8.6992 19.391 19.391 0 10.676-8.6992 19.363-19.391 19.363zm0 8.3359c0.82812 0 1.5 0.67188 1.5 1.5v7.9648c0 0.82812-0.67188 1.5-1.5 1.5-0.82813 0-1.5-0.67188-1.5-1.5v-7.9648c0-0.82812 0.67187-1.5 1.5-1.5zm14.824-4.9883c0.82812 0 1.5 0.67188 1.5 1.5v6.1797c0 0.82812-0.67188 1.5-1.5 1.5s-1.5-0.67188-1.5-1.5v-6.1797c0-0.83203 0.67188-1.5 1.5-1.5zm-29.652 0c0.82813 0 1.5 0.67188 1.5 1.5v6.1797c0 0.82812-0.67187 1.5-1.5 1.5-0.82812 0-1.5-0.67188-1.5-1.5v-6.1797c0-0.83203 0.67578-1.5 1.5-1.5zm56.863-4.0859h1.8516l-7.3477-7.3477-7.3281 7.3477h1.8555c0.82812 0 1.5 0.67188 1.5 1.5v17.035c0 0.82812-0.67188 1.5-1.5 1.5s-1.5-0.67188-1.5-1.5v-15.535h-3.9727c-0.60547 0-1.1523-0.36328-1.3867-0.92578-0.23047-0.5625-0.10547-1.2031 0.32422-1.6367l10.941-10.969c0.28125-0.28125 0.66406-0.44141 1.0625-0.44141 0.39844 0 0.77734 0.15625 1.0625 0.4375l10.969 10.969c0.42969 0.42969 0.55859 1.0742 0.32422 1.6367-0.23437 0.5625-0.77734 0.92578-1.3867 0.92578h-3.9727v15.535c0 0.82812-0.67188 1.5-1.5 1.5-0.82813 0-1.5-0.67188-1.5-1.5l0.003906-17.031c0-0.82812 0.67188-1.5 1.5-1.5zm-73.105 0h1.8789l-7.3477-7.3477-7.3281 7.3477h1.8555c0.82812 0 1.5 0.67188 1.5 1.5v17.035c0 0.82812-0.67188 1.5-1.5 1.5s-1.5-0.67188-1.5-1.5v-15.535h-3.9688c-0.60547 0-1.1523-0.36328-1.3867-0.92578-0.23047-0.5625-0.10547-1.2031 0.32422-1.6367l10.941-10.969c0.28125-0.28125 0.66406-0.44141 1.0625-0.44141s0.77734 0.15625 1.0625 0.4375l10.973 10.969c0.42969 0.42969 0.55859 1.0742 0.32422 1.6367s-0.77734 0.92578-1.3867 0.92578h-4v15.535c0 0.82812-0.67188 1.5-1.5 1.5s-1.5-0.67188-1.5-1.5l-0.003906-17.031c0-0.82812 0.67188-1.5 1.5-1.5z"/>
</svg>