<svg version="1.2" xmlns="http://www.w3.org/2000/svg" viewBox="0 0 575 379" width="575" height="379">
	<style>
		.s0 { opacity: .97;fill: #ffffff } 
	</style>
	<path id="Path 0" fill-rule="evenodd" class="s0" d="m313 13.82c2.48 0.18 6.75 0.73 9.5 1.23 2.75 0.5 6.53 1.94 8.41 3.18 1.87 1.25 4.35 3.54 5.5 5.09 1.7 2.29 2.09 4.28 2.09 10.54 0 6.53-0.46 8.67-3 13.91-2.1 4.34-2.55 6.01-1.5 5.58 0.82-0.33 4.88-1.68 9-3 4.13-1.32 11.55-3.14 16.5-4.06 5.9-1.09 14.17-1.65 24-1.63 10.64 0.02 17.04 0.52 22 1.73 3.85 0.94 8.91 2.81 11.25 4.16 2.34 1.35 5.38 4.14 6.75 6.2 1.63 2.43 2.51 5.15 2.52 7.75 0 2.22-1.08 6.23-2.44 9-1.34 2.75-5.05 7.77-14.08 17.3l7 0.68c3.85 0.38 9.93 1.33 13.5 2.12 3.57 0.78 7.85 1.95 9.5 2.59 1.65 0.65 4.91 2.44 7.25 3.99 2.41 1.6 5.12 4.55 6.25 6.82 1.1 2.2 1.99 5.46 1.99 7.25-0.01 1.79-1 5.28-2.2 7.75-1.21 2.47-5.14 7.54-15.29 17.99l5.37 5.26c2.95 2.89 8.58 9.07 12.51 13.75 3.93 4.68 8.11 10.07 9.3 12 2.14 3.48 2.21 3.5 11.49 4.28 5.13 0.42 11.81 1.01 14.83 1.3 3.02 0.28 10.45 1.19 16.5 2.02 6.05 0.82 16.17 2.65 22.5 4.06 6.33 1.4 13.08 3.36 15 4.36 1.92 0.99 4.72 3.08 6.2 4.64 1.49 1.56 3.41 4.87 4.27 7.34 0.87 2.47 1.56 6.97 1.55 10-0.01 3.03-0.95 8.88-2.1 13-1.15 4.13-2.78 8.85-3.62 10.5-0.83 1.65-3.23 4.8-9.11 11l-1.66 15.5c-0.91 8.52-2.77 21.35-4.13 28.5-1.36 7.15-3.64 16.38-5.07 20.5-1.42 4.13-3.6 9.52-4.84 12-1.24 2.48-3.88 6.64-5.87 9.25-1.99 2.61-3.6 5.09-3.58 5.5 0.02 0.41-5.94 4.83-13.25 9.81-11.28 7.68-14.95 9.61-24.29 12.72-6.05 2.01-15.73 4.4-21.5 5.3-7.17 1.11-16.84 1.62-30.5 1.61-13.15-0.02-23.25-0.55-29.5-1.56-5.23-0.85-12.65-2.51-16.5-3.68-3.85-1.17-11.95-4.51-18-7.43-9.18-4.43-12.47-6.68-19.88-13.66-4.89-4.6-10.9-11.06-13.37-14.36-2.46-3.3-5.95-8.93-7.75-12.5-1.81-3.57-4.91-10.66-6.89-15.75-1.99-5.09-4.75-13.64-6.14-19-1.39-5.36-3.14-14.7-3.89-20.75-1.26-10.29-1.55-11.18-4.47-13.75-2.22-1.96-4.62-2.92-8.36-3.34-2.89-0.33-7.05-0.12-9.25 0.47-2.2 0.59-5.01 1.76-6.25 2.6-1.24 0.83-2.72 2.76-3.3 4.27-0.58 1.51-1.73 7.93-2.55 14.25-0.81 6.32-2.18 14.2-3.03 17.5-0.85 3.3-2.8 9.6-4.32 14-1.52 4.4-4.8 12.05-7.28 17-2.49 4.95-7.23 12.6-10.55 17-3.32 4.4-9.34 10.69-13.38 13.98-4.04 3.3-10.27 7.69-13.84 9.77-3.57 2.08-9.99 5.13-14.25 6.77-4.26 1.64-11.46 3.88-16 4.98-4.54 1.09-14.32 2.48-21.75 3.07-9.67 0.78-17.69 0.78-28.25 0.01-8.11-0.6-18.24-1.8-22.5-2.68-4.26-0.87-11.35-2.8-15.75-4.28-5.89-1.98-11.93-5.32-22.88-12.66-8.18-5.48-16.62-11.87-18.75-14.21-2.13-2.34-5.17-6.84-6.76-10-1.58-3.16-4.5-10.48-6.47-16.25-1.98-5.77-4.71-17.02-6.06-25-1.35-7.98-2.81-19.23-4-35.5l-5.08-5c-3.69-3.64-5.55-6.49-6.83-10.5-0.97-3.03-2.22-8.88-2.78-13-0.56-4.12-0.72-9.3-0.35-11.5 0.37-2.2 1.76-6.03 3.1-8.5 1.33-2.47 3.98-5.51 5.89-6.75 1.91-1.24 6.06-2.91 9.22-3.73 3.16-0.81 12.05-2.56 19.75-3.9 7.7-1.33 22.49-3.25 51.73-6.12l2.51-5c1.38-2.75 5.9-10.85 10.05-18 4.15-7.15 11-18.18 15.23-24.5 4.22-6.33 10.56-15.08 14.08-19.46 3.52-4.38 11.12-12.98 16.9-19.12 5.78-6.13 14.55-14.7 19.51-19.04 4.95-4.33 13.28-11.08 18.5-14.99 5.22-3.91 15.34-10.64 22.49-14.95 7.15-4.31 18.18-10.05 24.5-12.75 6.32-2.71 15.32-6.18 20-7.71 4.68-1.53 12.18-3.22 16.67-3.76 4.49-0.54 10.34-1.15 13-1.35 2.66-0.2 6.85-0.23 9.33-0.05zm-34 32.26c-3.57 1.16-11.23 4.21-17 6.78-5.77 2.57-14.32 6.92-19 9.66-4.68 2.73-11.88 7.4-16 10.37-4.13 2.96-11.32 8.64-16 12.61-4.68 3.98-13 11.91-18.5 17.64-5.5 5.73-13.43 14.68-17.62 19.89-4.19 5.21-10.55 13.75-14.14 18.97-3.58 5.22-9.66 14.68-13.5 21l-6.98 11.5c14.14 0.34 26.34 0.93 36.24 1.54 9.9 0.6 23.06 1.97 29.25 3.03 6.19 1.06 15.86 3.46 21.5 5.33 5.64 1.88 14.07 4.81 18.75 6.51 4.68 1.71 11.87 3.8 16 4.65 4.12 0.85 14.02 1.81 22 2.13 8.7 0.34 18.9 0.09 25.5-0.63 7.8-0.85 14.2-2.32 22-5.03 6.05-2.11 14.82-5.18 19.5-6.82 4.68-1.65 13-3.95 18.5-5.1 5.5-1.16 14.05-2.56 19-3.11 4.95-0.56 17.2-1.34 27.23-1.75l18.23-0.75c-9.66-9.77-16.06-14.97-20.46-17.86-4.4-2.89-8.97-6.58-10.16-8.2-1.18-1.62-2.47-4.06-2.85-5.44-0.38-1.37-0.22-4.07 0.36-6 0.58-1.93 2.99-5.31 5.35-7.53 2.37-2.21 6.71-5.59 9.65-7.5l5.35-3.47c-4.42-1.26-10.2-1.38-15.7-1.08-5.5 0.3-14.95 1.44-21 2.54-6.05 1.09-15.27 3.34-20.5 5-5.46 1.73-11.73 3.01-14.75 3.02-4.02 0.02-5.86-0.51-7.85-2.23-1.96-1.69-2.74-3.5-3.12-7.25-0.46-4.44-0.2-5.38 2.35-8.37 1.58-1.86 6.47-5.54 10.87-8.19 4.4-2.65 11.83-7.43 16.51-10.63 4.69-3.19 11.96-8.73 16.18-12.31l7.66-6.5c-4.92-0.78-10.85-0.7-16.35-0.33-5.5 0.37-14.73 1.83-20.5 3.25-5.77 1.41-15.9 4.64-22.5 7.17-6.6 2.54-19.2 8.38-28 12.99-8.8 4.61-17.13 8.39-18.5 8.39-1.38 0.01-3.96-0.88-5.75-1.97-1.79-1.1-3.74-3.24-4.33-4.75-0.6-1.51-0.82-4.33-0.5-6.25 0.31-1.92 2.08-5.75 3.91-8.5 1.83-2.75 8.03-10.85 13.78-18 5.74-7.15 11.68-15.25 13.2-18 1.51-2.75 2.74-5.11 2.72-5.25-0.02-0.14-2.39-0.21-5.28-0.17-2.89 0.04-8.18 0.71-11.75 1.49-3.57 0.78-9.43 2.36-13 3.51zm102.5 160.91c-6.6 1.18-16.05 3.5-21 5.14-4.95 1.64-10.8 4.03-13 5.29-2.2 1.27-5.31 3.83-6.9 5.69-1.6 1.87-3.58 4.97-4.4 6.89-0.98 2.27-1.49 6.66-1.47 12.5 0.01 4.95 0.74 12.83 1.62 17.5 0.88 4.68 2.92 12.77 4.54 18 1.62 5.23 3.7 11.3 4.64 13.5 0.93 2.2 3.39 6.93 5.47 10.5 2.07 3.58 5.96 8.94 8.64 11.93 2.67 2.99 7.56 7.17 10.86 9.29 3.3 2.12 9.49 5.19 13.75 6.82 4.26 1.63 11.01 3.66 15 4.52 3.99 0.85 13.55 1.82 21.25 2.14 8.62 0.35 18.03 0.1 24.5-0.66 5.77-0.68 13.87-2.08 18-3.13 4.12-1.04 10.83-3.59 14.9-5.65 4.87-2.47 9.16-5.64 12.52-9.26 3.37-3.62 6.2-8.06 8.28-13 1.73-4.12 4.11-12 5.27-17.5 1.44-6.77 2.31-15.5 2.71-27 0.41-11.72 0.2-19.17-0.67-24-0.69-3.85-2.22-9.02-3.38-11.49-1.17-2.47-3.48-5.86-5.13-7.54-1.65-1.68-5.7-4.09-9-5.37-3.3-1.27-10.05-3.16-15-4.19-4.95-1.03-13.73-2.32-19.5-2.86-5.77-0.53-15.9-1.14-22.5-1.34-6.6-0.21-17.85-0.04-25 0.38-7.15 0.42-18.4 1.72-25 2.9zm-281.5 1.66c-3.58 0.9-8.3 2.4-10.5 3.33-2.2 0.94-5.58 3.05-7.5 4.7-1.92 1.66-4.47 5.22-5.65 7.92-1.19 2.69-2.72 8.5-3.41 12.9-0.84 5.35-1.05 12.81-0.64 22.5 0.34 7.98 1.31 18.55 2.14 23.5 0.84 4.95 2.56 12.38 3.82 16.5 1.27 4.13 3.71 9.75 5.43 12.5 1.72 2.75 4.86 6.6 6.97 8.56 2.11 1.95 6.76 4.96 10.34 6.69 3.58 1.72 9.2 3.85 12.5 4.73 3.3 0.88 10.28 2.25 15.5 3.05 5.22 0.8 14.9 1.46 21.5 1.46 6.6 0 16.28-0.66 21.5-1.46 5.22-0.81 12.43-2.31 16-3.35 3.57-1.04 8.97-3.06 12-4.48 3.03-1.43 7.97-4.35 11-6.49 3.03-2.14 7.86-7 10.74-10.8 2.88-3.8 7.02-10.96 9.19-15.91 2.17-4.95 5.05-12.82 6.4-17.5 1.35-4.67 3.25-13 4.23-18.5 0.97-5.5 1.78-13.37 1.8-17.5 0.02-5.98-0.47-8.5-2.42-12.43-1.34-2.72-4.06-6.32-6.05-8-1.98-1.69-6.71-4.29-10.5-5.78-3.79-1.49-10.27-3.63-14.39-4.75-4.13-1.12-11.32-2.76-16-3.65-6.17-1.17-16.17-1.7-36.5-1.95-20.4-0.25-31.12 0.05-39.5 1.12-6.33 0.8-14.42 2.19-18 3.09z"/>
</svg>